<svg version="1.1" id="Layer_1" xmlns="http://www.w3.org/2000/svg" xmlns:xlink="http://www.w3.org/1999/xlink" x="0px" y="0px"
	 width="100%" viewBox="0 0 359 136" enable-background="new 0 0 359 136" xml:space="preserve">
<path fill="#000000" opacity="1.000000" stroke="none" 
	d="
M281.000000,137.000000 
	C187.333359,137.000000 94.166710,137.000000 1.000050,137.000000 
	C1.000033,91.666702 1.000033,46.333401 1.000017,1.000074 
	C120.666603,1.000050 240.333206,1.000050 359.999878,1.000025 
	C359.999908,46.333263 359.999908,91.666527 359.999939,136.999893 
	C333.833344,137.000000 307.666656,137.000000 281.000000,137.000000 
M166.926163,16.987133 
	C215.399979,16.987133 263.873810,16.987133 312.347626,16.987133 
	C312.348175,16.658136 312.348755,16.329142 312.349335,16.000145 
	C310.716644,16.000145 309.083923,16.000153 307.451233,16.000143 
	C285.456818,16.000031 263.462402,15.978335 241.468033,16.005487 
	C216.311996,16.036547 191.156021,16.111029 165.116791,16.012911 
	C157.367630,14.197666 153.107758,20.012804 147.433273,24.045212 
	C147.341248,24.358133 147.249222,24.671057 147.012405,25.725313 
	C147.012405,26.354704 147.012405,26.984095 147.012405,27.613485 
	C146.563950,27.714083 146.115479,27.814678 145.667023,27.915276 
	C145.110519,25.992290 144.470993,24.088516 144.020325,22.141037 
	C143.547958,20.099808 143.589035,17.951773 140.474548,17.965618 
	C123.487030,18.041140 106.497925,17.905821 89.512177,18.095078 
	C86.694565,18.126471 83.710365,18.502232 83.799324,23.200750 
	C83.876091,27.255615 82.235329,31.342999 81.031685,36.904736 
	C81.031685,29.767521 81.031685,24.080862 81.031685,18.365120 
	C55.756195,18.365120 30.913008,18.365120 6.348809,18.365120 
	C6.348809,50.453388 6.348809,82.176140 6.348809,113.678581 
	C42.090935,113.678581 77.484444,113.678581 113.141937,113.678581 
	C113.141937,110.065781 113.141937,106.774345 113.141937,103.482910 
	C113.267525,103.475418 113.393112,103.467918 113.518700,103.460426 
	C114.028625,106.903976 114.538544,110.347534 115.005058,113.497986 
	C171.183792,113.497986 226.902985,113.497986 282.974335,113.497986 
	C282.974335,96.573799 282.974335,79.553658 282.974335,61.907658 
	C285.209106,65.962631 287.228424,69.320648 288.944824,72.826965 
	C290.667328,76.345825 292.087860,80.012520 293.142517,84.352692 
	C293.142517,93.732430 293.142517,103.112167 293.142517,112.491905 
	C293.282806,112.490601 293.423065,112.489288 293.563354,112.487984 
	C293.563354,102.835648 293.563354,93.183319 294.367065,84.041740 
	C294.367065,93.919395 294.367065,103.797058 294.367065,113.760567 
	C308.539490,113.760567 321.608795,113.760567 335.140930,113.760567 
	C335.140930,103.890160 335.140930,94.249077 335.140930,84.608002 
	C335.476044,84.609436 335.811127,84.610878 336.146240,84.612320 
	C336.146240,93.832939 336.146240,103.053566 336.146240,112.274193 
	C336.999878,110.621048 336.755829,108.934372 337.039062,107.341446 
	C339.035248,96.114983 333.084290,84.275925 341.452515,73.228470 
	C345.621246,67.725067 346.056122,59.412476 348.288452,52.405163 
	C348.682831,51.167164 349.634308,50.112030 350.290771,48.951115 
	C352.196503,45.581047 355.432953,42.298985 355.689056,38.802349 
	C356.184540,32.036320 354.996857,25.147017 354.481537,17.956692 
	C341.427704,18.307289 328.322021,17.444897 315.689850,18.414762 
	C315.838013,21.202265 315.926178,22.861263 316.014343,24.520262 
	C315.709808,24.556023 315.405273,24.591784 315.100739,24.627544 
	C314.571259,22.494541 314.041779,20.361540 313.414246,17.833603 
	C261.895721,17.833603 210.279663,17.833603 158.663605,17.833603 
	C158.656677,17.500189 158.649750,17.166773 158.642822,16.833359 
	C161.095215,16.833359 163.547623,16.833359 166.926163,16.987133 
M4.999837,93.499695 
	C4.999837,68.549698 4.999837,43.599709 4.999837,18.649715 
	C4.770431,18.651747 4.541025,18.653778 4.311619,18.655809 
	C4.311619,50.226517 4.311619,81.797226 4.311619,113.367935 
	C4.541025,113.369873 4.770431,113.371811 4.999837,113.373749 
	C4.999837,107.082306 4.999837,100.790855 4.999837,93.499695 
M151.500000,116.000000 
	C167.454834,116.000000 183.409668,116.000000 199.364502,116.000000 
	C199.361404,115.770874 199.358292,115.541748 199.355194,115.312622 
	C171.790009,115.312622 144.224838,115.312622 116.659660,115.312622 
	C116.658875,115.541748 116.658089,115.770874 116.657303,116.000000 
	C127.938202,116.000000 139.219101,116.000000 151.500000,116.000000 
M279.054138,115.998039 
	C279.853790,115.937637 280.653412,115.877235 281.453064,115.816833 
	C281.447571,115.641121 281.442047,115.465401 281.436554,115.289688 
	C257.134430,115.289688 232.832321,115.289688 208.530212,115.289688 
	C208.528503,115.526024 208.526794,115.762367 208.525070,115.998703 
	C231.730972,115.998703 254.936859,115.998703 279.054138,115.998039 
M21.504978,15.999989 
	C16.557280,15.999989 11.609580,15.999989 6.661880,15.999989 
	C6.671757,16.224026 6.681633,16.448065 6.691509,16.672102 
	C30.899298,16.672102 55.107086,16.672102 79.314873,16.672102 
	C79.314629,16.448065 79.314384,16.224026 79.314140,15.999989 
	C60.377117,15.999989 41.440090,15.999989 21.504978,15.999989 
M90.499840,116.000000 
	C97.449089,116.000000 104.398331,116.000000 111.347580,116.000000 
	C111.340492,115.774033 111.333405,115.548073 111.326317,115.322105 
	C89.780350,115.322105 68.234383,115.322105 46.688419,115.322105 
	C46.688416,115.548073 46.688412,115.774033 46.688408,116.000000 
	C60.958912,116.000000 75.229416,116.000000 90.499840,116.000000 
M97.542389,15.999803 
	C94.251724,15.999803 90.961052,15.999803 87.670387,15.999803 
	C87.677002,16.225821 87.683617,16.451839 87.690224,16.677856 
	C105.230370,16.677856 122.770515,16.677856 140.310654,16.677856 
	C140.310471,16.451838 140.310272,16.225821 140.310089,15.999802 
	C126.383492,15.999802 112.456902,15.999802 97.542389,15.999803 
M284.999756,71.779839 
	C284.999756,70.353638 284.999756,68.927429 284.999756,67.501228 
	C284.756012,67.502922 284.512238,67.504608 284.268494,67.506302 
	C284.268494,82.495171 284.268494,97.484039 284.268494,112.472916 
	C284.512329,112.474480 284.756165,112.476044 285.000000,112.477608 
	C285.000000,99.224625 285.000000,85.971642 284.999756,71.779839 
M302.660339,115.999634 
	C312.851685,115.999634 323.043060,115.999634 333.234406,115.999634 
	C333.229706,115.742493 333.225037,115.485352 333.220367,115.228210 
	C320.988861,115.228210 308.757355,115.228210 296.525848,115.228210 
	C296.523590,115.485336 296.521301,115.742462 296.519012,115.999588 
	C298.250305,115.999588 299.981598,115.999588 302.660339,115.999634 
M350.226562,16.998928 
	C351.657928,16.998928 353.089294,16.998928 354.520630,16.998928 
	C354.519012,16.754782 354.517426,16.510637 354.515808,16.266491 
	C342.176178,16.266491 329.836548,16.266491 317.496948,16.266491 
	C317.494904,16.510702 317.492859,16.754913 317.490814,16.999125 
	C328.089355,16.999125 338.687866,16.999125 350.226562,16.998928 
M13.660278,115.999458 
	C23.517874,115.999458 33.375469,115.999458 43.233063,115.999458 
	C43.228134,115.742378 43.223209,115.485306 43.218281,115.228226 
	C31.320887,115.228226 19.423494,115.228226 7.526101,115.228226 
	C7.523842,115.485237 7.521583,115.742249 7.519323,115.999260 
	C9.250489,115.999260 10.981654,115.999260 13.660278,115.999458 
z"/>
<path fill="#F4F8F2" opacity="1.000000" stroke="none" 
	d="
M293.640747,83.614426 
	C292.087860,80.012520 290.667328,76.345825 288.944824,72.826965 
	C287.228424,69.320648 285.209106,65.962631 282.974335,61.907658 
	C282.974335,79.553658 282.974335,96.573799 282.974335,113.497986 
	C226.902985,113.497986 171.183792,113.497986 115.005058,113.497986 
	C114.538544,110.347534 114.028625,106.903976 113.518700,103.460426 
	C113.393112,103.467918 113.267525,103.475418 113.141937,103.482910 
	C113.141937,106.774345 113.141937,110.065781 113.141937,113.678581 
	C77.484444,113.678581 42.090935,113.678581 6.348809,113.678581 
	C6.348809,82.176140 6.348809,50.453388 6.348809,18.365120 
	C30.913008,18.365120 55.756195,18.365120 81.031685,18.365120 
	C81.031685,24.080862 81.031685,29.767521 81.031685,36.904736 
	C82.235329,31.342999 83.876091,27.255615 83.799324,23.200750 
	C83.710365,18.502232 86.694565,18.126471 89.512177,18.095078 
	C106.497925,17.905821 123.487030,18.041140 140.474548,17.965618 
	C143.589035,17.951773 143.547958,20.099808 144.020325,22.141037 
	C144.470993,24.088516 145.110519,25.992290 145.667023,27.915276 
	C146.115479,27.814678 146.563950,27.714083 147.012405,27.613485 
	C147.012405,26.984095 147.012405,26.354704 147.276459,25.215073 
	C147.768814,24.469032 147.905136,24.188528 147.949478,23.863319 
	C153.107758,20.012804 157.367630,14.197666 165.558411,16.256454 
	C166.000046,16.500000 166.000015,16.833359 166.000015,16.833359 
	C163.547623,16.833359 161.095215,16.833359 158.642822,16.833359 
	C158.649750,17.166773 158.656677,17.500189 158.663605,17.833603 
	C210.279663,17.833603 261.895721,17.833603 313.414246,17.833603 
	C314.041779,20.361540 314.571259,22.494541 315.100739,24.627544 
	C315.405273,24.591784 315.709808,24.556023 316.014343,24.520262 
	C315.926178,22.861263 315.838013,21.202265 315.689850,18.414762 
	C328.322021,17.444897 341.427704,18.307289 354.481537,17.956692 
	C354.996857,25.147017 356.184540,32.036320 355.689056,38.802349 
	C355.432953,42.298985 352.196503,45.581047 350.290771,48.951115 
	C349.634308,50.112030 348.682831,51.167164 348.288452,52.405163 
	C346.056122,59.412476 345.621246,67.725067 341.452515,73.228470 
	C333.084290,84.275925 339.035248,96.114983 337.039062,107.341446 
	C336.755829,108.934372 336.999878,110.621048 336.146240,112.274193 
	C336.146240,103.053566 336.146240,93.832939 336.146240,84.612320 
	C335.811127,84.610878 335.476044,84.609436 335.140930,84.608002 
	C335.140930,94.249077 335.140930,103.890160 335.140930,113.760567 
	C321.608795,113.760567 308.539490,113.760567 294.367065,113.760567 
	C294.367065,103.797058 294.367065,93.919395 293.984497,83.807266 
	C293.601959,83.572792 293.640747,83.614418 293.640747,83.614426 
M67.935127,72.530876 
	C67.871376,72.185432 67.807617,71.839981 67.877022,70.599594 
	C67.768997,67.032188 66.956528,63.306698 67.713509,59.933399 
	C68.933060,54.498707 71.187653,49.296284 73.686996,43.878555 
	C74.457512,41.585964 75.228027,39.293377 75.998901,36.073051 
	C75.998787,33.406525 75.862785,30.731340 76.032005,28.075603 
	C76.257431,24.537828 75.043556,22.829712 71.221565,22.950138 
	C65.061333,23.144236 58.889614,22.936937 52.724476,23.023125 
	C47.855503,23.091190 46.243298,25.984268 48.162350,31.705755 
	C48.057983,32.136673 47.953617,32.567589 47.221031,33.120186 
	C47.177864,34.091091 47.134697,35.062000 47.139957,36.700882 
	C47.040569,37.134415 46.941181,37.567951 46.120918,38.184708 
	C46.047188,39.244915 45.973454,40.305122 46.012344,41.743336 
	C46.012344,41.743336 45.849705,42.102665 45.122757,41.516747 
	C43.749016,40.345387 42.375271,39.174030 41.000206,37.077057 
	C40.999939,34.633419 41.246643,32.155506 40.913918,29.758009 
	C40.686260,28.117598 39.651218,26.589235 38.496716,24.880371 
	C38.496716,24.880371 38.010437,24.986439 37.086132,24.809477 
	C30.374928,24.808880 23.662785,24.750387 16.953360,24.859392 
	C15.699483,24.879765 14.456511,25.571426 13.028454,26.493855 
	C12.969541,26.674404 12.910628,26.854954 12.332876,27.673546 
	C12.223454,28.321203 12.018844,28.968788 12.018357,29.616526 
	C12.000463,53.483238 11.988647,77.349991 12.036195,101.216621 
	C12.038684,102.466362 12.567664,103.715065 13.025821,105.475616 
	C13.081954,105.646729 13.138087,105.817841 13.136930,106.622131 
	C13.757092,107.132225 14.377254,107.642319 15.043978,108.960709 
	C15.474487,109.592804 15.891047,110.763901 16.337616,110.775467 
	C22.229195,110.927933 28.127935,111.009804 34.015800,110.822998 
	C34.705742,110.801109 35.341568,109.073524 36.541138,107.954750 
	C37.034771,107.675667 37.528404,107.396576 38.534138,107.214813 
	C38.692158,107.142418 38.850178,107.070015 39.790409,106.804535 
	C40.194130,102.202133 40.597851,97.599739 41.669140,92.880165 
	C42.445953,90.919296 43.222763,88.958427 44.511585,87.435669 
	C45.283142,88.623428 46.054699,89.811188 47.036079,91.635521 
	C47.052773,92.079674 47.069469,92.523827 46.522202,93.442497 
	C47.664204,97.627602 48.806202,101.812714 50.427090,106.715340 
	C52.928547,107.079758 55.430004,107.444168 57.614422,108.381783 
	C55.930977,108.836525 54.247528,109.291275 52.564083,109.746025 
	C52.628094,110.043037 52.692108,110.340057 52.756119,110.637070 
	C59.648426,110.637070 66.540733,110.637070 73.927849,110.637070 
	C73.097168,109.373459 72.581795,108.589485 72.891579,107.549263 
	C74.083275,106.704430 75.274979,105.859604 77.205978,105.008034 
	C78.439896,105.006012 79.673805,105.003983 81.059242,105.810898 
	C82.371216,106.380531 83.683197,106.950157 84.788918,108.111458 
	C84.343925,108.845505 83.898933,109.579559 83.381279,110.433456 
	C90.386696,110.433456 96.914604,110.433456 104.365677,110.433456 
	C101.926033,109.107201 100.465408,108.313164 99.943047,107.460350 
	C102.147224,107.315514 104.351395,107.170670 107.278252,107.002014 
	C108.405548,105.521400 110.265839,104.152878 110.512825,102.537659 
	C111.088310,98.774147 110.887306,94.891907 111.848289,90.907410 
	C113.565201,90.959702 115.282112,91.011993 117.017815,91.782661 
	C117.978386,92.522354 118.938950,93.262047 120.084808,94.736969 
	C120.078651,95.491020 120.072502,96.245079 119.297554,97.166298 
	C118.101189,100.135147 115.464195,103.400734 121.076958,105.628868 
	C121.719421,106.364670 122.361877,107.100471 123.033272,108.686546 
	C123.714661,109.443535 124.376999,110.836365 125.080429,110.857445 
	C130.986862,111.034431 136.905762,111.074577 142.806580,110.821495 
	C143.577530,110.788422 144.267181,108.859909 145.514389,107.628456 
	C145.869278,107.704224 146.224167,107.779999 147.381165,107.931129 
	C148.900970,107.626373 150.420776,107.321617 152.740646,107.322083 
	C154.159042,107.388748 155.577454,107.455414 156.771378,108.124794 
	C155.978226,108.760384 155.185089,109.395973 153.337799,110.876297 
	C169.366241,110.876297 184.093750,111.050240 198.812332,110.764488 
	C202.933899,110.684471 206.431015,105.979088 206.819244,100.997482 
	C206.813705,100.648689 206.808167,100.299889 207.070251,99.466415 
	C207.166473,99.308968 207.262711,99.151527 208.076401,98.710876 
	C208.252869,91.058022 208.441055,83.405327 208.551895,75.751526 
	C208.555405,75.509514 207.762314,75.255966 207.135483,74.497856 
	C207.161896,74.316544 207.188293,74.135223 207.582413,73.604179 
	C207.369370,73.075203 207.156326,72.546227 206.991837,72.057594 
	C206.991837,72.057594 206.937332,72.090225 207.230728,71.444405 
	C207.780090,67.697029 202.467865,61.224232 198.857437,61.329681 
	C198.512238,61.339756 198.185837,61.993866 197.304092,62.143089 
	C196.864624,61.778416 196.425171,61.413742 195.666794,60.566757 
	C195.317917,60.420025 194.969025,60.273293 194.389816,60.218964 
	C194.389816,60.218964 194.187393,60.075352 193.817230,60.018631 
	C193.817230,60.018631 193.443863,59.989635 193.211411,59.515800 
	C193.136398,59.356655 193.061401,59.197514 192.878799,58.343769 
	C191.906570,57.903835 190.934357,57.463902 189.993210,56.995453 
	C189.993210,56.995453 189.979736,57.033920 189.977493,56.278210 
	C187.318939,52.693256 184.660385,49.108299 182.925995,45.368999 
	C189.615372,45.233677 196.304749,45.098354 203.406876,44.990276 
	C203.406876,44.990276 203.815964,44.928925 204.564041,44.896511 
	C208.992142,42.033894 212.146713,29.911871 209.444611,25.711023 
	C209.108994,25.189238 207.955887,25.193277 206.230988,24.799215 
	C191.134567,24.751446 176.038132,24.703676 160.591034,24.332672 
	C160.066574,24.516281 159.542114,24.699890 158.485641,25.184891 
	C157.740036,25.488832 156.994415,25.792774 155.480103,26.052486 
	C151.764282,26.890947 149.075592,28.413403 150.131470,33.189529 
	C149.868515,40.143353 149.583298,47.096634 149.412704,54.052719 
	C149.404739,54.378029 150.419159,54.728413 151.201828,55.462605 
	C151.402695,55.710464 151.653305,55.888184 152.186554,56.614834 
	C152.199844,57.052536 152.213135,57.490238 151.510757,58.057388 
	C149.706558,61.415497 150.928391,63.189487 155.999817,64.086815 
	C156.663010,64.738518 157.326187,65.390213 158.287476,66.476555 
	C158.599792,66.624939 158.912109,66.773315 159.765961,67.011627 
	C160.171600,67.364830 160.577225,67.718033 161.284622,68.492928 
	C161.592865,68.637505 161.901093,68.782074 162.653915,69.006256 
	C162.653915,69.006256 162.990509,69.307426 163.011444,70.005531 
	C165.293640,74.987038 169.778076,77.735924 174.659927,76.928391 
	C175.103012,77.299873 175.546097,77.671364 176.293304,78.478371 
	C176.609863,78.624016 176.926407,78.769661 177.778275,78.999886 
	C178.180405,79.345169 178.582535,79.690453 178.673325,80.735268 
	C177.155106,81.823181 175.688156,83.753662 174.109604,83.849693 
	C168.043488,84.218765 161.941391,84.031441 155.853241,83.983604 
	C153.697159,83.966660 151.779327,84.059959 152.000488,87.000000 
	C152.000488,87.000000 151.995560,86.999832 151.154800,86.998466 
	C148.810776,87.152939 147.664978,86.671753 146.764511,83.833015 
	C144.418259,76.436508 146.419968,68.444366 143.176926,61.276314 
	C143.120361,61.151287 143.254440,60.952850 143.241577,60.793350 
	C142.758179,54.802513 142.471283,48.783428 141.630142,42.842888 
	C141.429520,41.425968 139.375214,40.271519 137.970825,38.348904 
	C137.979050,37.899277 137.987289,37.449654 138.722977,36.848068 
	C140.527969,33.119137 139.292679,28.295498 135.602203,25.936987 
	C135.602203,25.936987 135.245468,25.931841 134.816223,25.127695 
	C120.854561,25.022673 106.892906,24.917650 92.573494,24.437080 
	C92.191269,24.511282 91.809052,24.585484 91.426826,24.659685 
	C91.653961,25.121979 91.881096,25.584274 92.180969,26.791578 
	C92.056648,27.526981 91.932327,28.262384 91.181252,29.129580 
	C91.169861,30.104649 91.158478,31.079718 91.207550,32.798721 
	C91.080116,33.531845 90.952682,34.264965 90.192039,35.130020 
	C90.190208,36.110207 90.188377,37.090389 90.232658,38.811134 
	C90.104668,39.539959 89.976677,40.268784 89.128250,41.115494 
	C88.098984,43.038639 86.497734,44.861420 86.139610,46.902332 
	C84.600403,55.674061 83.365265,64.501976 82.222824,73.335732 
	C82.118866,74.139534 83.464493,75.130814 84.214409,76.701271 
	C84.110626,77.133514 84.006844,77.565750 83.162025,78.024002 
	C82.559807,78.894783 81.536667,79.717712 81.431244,80.644981 
	C81.057030,83.936432 80.995842,87.263474 80.796799,90.932373 
	C78.793198,90.543922 77.396904,90.273216 75.486351,89.580009 
	C75.323738,88.719673 75.161125,87.859344 75.481262,86.578255 
	C74.655235,85.053429 73.829208,83.528595 72.670143,81.527298 
	C72.129456,81.351585 71.588768,81.175873 70.847321,80.699051 
	C70.847321,80.699051 70.891586,80.339859 70.833931,79.839439 
	C70.641212,79.572166 70.448486,79.304893 69.987297,78.543594 
	C69.947876,78.173927 69.908447,77.804260 69.934242,76.636734 
	C69.351234,75.424149 68.768219,74.211571 67.935127,72.530876 
M214.376129,25.133101 
	C214.378571,25.492340 214.381027,25.851580 214.390884,27.120489 
	C214.390884,53.771324 214.390884,80.422157 214.390884,107.068459 
	C216.705292,107.344894 218.326294,107.538506 219.681854,108.294273 
	C218.613022,108.810974 217.544205,109.327675 216.475372,109.844376 
	C216.531250,110.093620 216.587128,110.342865 216.643005,110.592110 
	C223.574081,110.592110 230.505157,110.592110 237.881500,110.592110 
	C237.082062,109.341652 236.567322,108.536514 236.825378,107.462814 
	C237.912842,107.382568 239.000290,107.302322 240.612244,107.631767 
	C241.408218,106.122055 242.834763,104.635620 242.891495,103.098618 
	C243.142715,96.292137 242.959747,89.470711 243.029312,82.655663 
	C243.046600,80.960762 243.419907,79.269493 243.590088,77.895233 
	C246.332672,78.335213 248.406235,78.667854 250.680267,79.918198 
	C250.694458,87.551231 250.649277,95.185234 250.774979,102.816429 
	C250.798950,104.271538 251.497879,105.715538 251.871216,107.483681 
	C251.871216,107.483681 251.879608,107.802902 251.980621,108.537369 
	C252.458969,109.318954 252.922150,110.769814 253.417923,110.781036 
	C260.084473,110.931923 266.755585,110.882141 273.425537,110.882141 
	C273.434052,110.567657 273.442596,110.253174 273.451111,109.938690 
	C271.985748,109.202858 270.520416,108.467026 269.900238,107.459938 
	C272.092163,106.972145 274.284088,106.484360 276.834167,106.292435 
	C277.224823,106.528473 277.615448,106.764503 278.791107,106.804550 
	C279.185669,106.139130 279.922913,105.474640 279.924744,104.808144 
	C279.973755,86.817467 279.966522,68.826454 279.852600,50.836246 
	C279.848694,50.220776 278.647217,49.612892 278.000549,48.126125 
	C278.001587,46.083652 278.002625,44.041183 278.697968,41.879719 
	C282.487427,39.489605 283.272186,39.984467 284.029541,44.602528 
	C284.882629,49.804775 284.934845,55.544422 291.088593,57.953239 
	C291.088593,57.953239 291.137482,57.834225 291.055847,58.599335 
	C291.679016,59.732925 292.302185,60.866516 293.136932,62.292545 
	C293.136932,62.292545 293.122375,62.653206 293.057892,63.448524 
	C293.689789,64.632362 294.321686,65.816193 295.167786,67.249138 
	C295.167786,67.249138 295.141724,67.576637 295.007874,68.393158 
	C295.236572,71.051918 294.695435,74.117218 295.843201,76.290619 
	C298.872894,82.027603 300.584839,87.796936 300.098785,94.351860 
	C299.863220,97.528854 300.672882,100.783348 301.066406,104.614456 
	C301.412842,105.086800 301.759247,105.559143 302.226685,106.352066 
	C302.226685,106.352066 302.130707,106.681015 302.111877,107.377037 
	C302.743317,107.916801 303.374756,108.456573 304.195679,109.784187 
	C311.278198,109.977478 318.360565,110.180710 325.444305,110.306259 
	C325.619659,110.309372 325.810272,109.452248 326.718842,108.981346 
	C327.808075,107.990013 328.897339,106.998672 330.480408,105.631454 
	C330.316010,104.751984 330.151642,103.872520 329.988617,102.061707 
	C329.987946,97.376099 329.987274,92.690491 330.527832,87.523491 
	C331.922821,83.877403 333.614685,80.311951 334.632904,76.563507 
	C335.746582,72.463821 336.237457,68.194962 337.014282,63.339237 
	C337.394409,62.551918 337.774567,61.764595 338.566803,60.597408 
	C338.665039,60.241272 338.763275,59.885136 338.869202,58.988892 
	C339.011627,58.662189 339.154022,58.335487 340.017273,57.985126 
	C344.727081,55.801376 346.531860,50.806900 344.836151,44.252602 
	C344.836151,44.252602 345.057953,44.000324 345.795776,43.824646 
	C346.154785,42.426727 346.513763,41.028809 346.857422,39.278122 
	C346.857422,39.278122 347.075714,39.000584 347.646149,38.923279 
	C347.747986,38.276501 347.849823,37.629723 347.919891,36.233028 
	C348.002258,35.489697 348.084595,34.746368 348.821014,33.986038 
	C349.386230,33.625446 349.951416,33.264854 350.516632,32.904266 
	C349.733398,32.601810 348.950134,32.299351 348.031128,31.177343 
	C347.344666,29.070982 346.658234,26.964619 345.361084,24.306870 
	C337.547516,24.532040 329.733917,24.757212 321.220459,25.133379 
	C317.197968,29.859983 317.220123,35.505249 317.582672,41.539238 
	C316.303894,41.896355 314.960327,42.271564 312.995209,42.820351 
	C312.995209,39.168934 313.345123,36.007694 312.898590,32.963264 
	C312.435089,29.803024 312.998352,25.667219 307.209045,24.805862 
	C298.815247,24.873884 290.421448,24.941908 281.293823,25.005468 
	C280.197021,25.335644 279.100189,25.665819 277.485962,25.998108 
	C277.141907,25.982254 276.797821,25.966402 275.817230,25.899681 
	C275.605530,25.877573 275.393799,25.855463 274.712280,25.075054 
	C266.791443,24.967131 258.870636,24.859207 250.373016,24.397888 
	C249.915955,25.782803 249.094421,27.159794 249.064117,28.553984 
	C248.922958,35.046913 248.980347,41.544693 249.011398,48.040527 
	C249.021667,50.189945 248.969254,52.023602 245.975983,52.014225 
	C242.948181,52.004738 242.986694,50.102600 242.993958,47.991646 
	C243.015747,41.662304 242.982239,35.332752 243.010300,29.003458 
	C243.019577,26.909552 243.139008,24.824381 239.160080,24.815382 
	C231.082657,24.857691 223.005249,24.900000 214.376129,25.133101 
M79.841896,61.624001 
	C80.228050,58.389904 81.086151,55.122379 80.860146,51.931641 
	C80.656998,49.063690 83.221489,45.001102 78.059181,43.237671 
	C78.390396,54.883400 69.654305,65.777733 77.301781,78.447594 
	C77.908119,72.819893 78.430519,67.971237 78.999039,62.500660 
	C79.014641,62.293369 79.030235,62.086082 79.841896,61.624001 
M165.472549,78.939217 
	C161.037506,76.788025 156.602463,74.636826 152.008530,72.408562 
	C152.008530,74.685944 152.008530,77.043571 152.008530,80.281281 
	C156.233856,79.925499 161.260544,79.502243 165.472549,78.939217 
z"/>
<path fill="#F4F8F4" opacity="1.000000" stroke="none" 
	d="
M166.463089,16.910246 
	C166.000015,16.833359 166.000046,16.500000 166.000031,16.333321 
	C191.156021,16.111029 216.311996,16.036547 241.468033,16.005487 
	C263.462402,15.978335 285.456818,16.000031 307.451233,16.000143 
	C309.083923,16.000153 310.716644,16.000145 312.349335,16.000145 
	C312.348755,16.329142 312.348175,16.658136 312.347626,16.987133 
	C263.873810,16.987133 215.399979,16.987133 166.463089,16.910246 
z"/>
<path fill="#F4F8F2" opacity="1.000000" stroke="none" 
	d="
M4.999837,93.999550 
	C4.999837,100.790855 4.999837,107.082306 4.999837,113.373749 
	C4.770431,113.371811 4.541025,113.369873 4.311619,113.367935 
	C4.311619,81.797226 4.311619,50.226517 4.311619,18.655809 
	C4.541025,18.653778 4.770431,18.651747 4.999837,18.649715 
	C4.999837,43.599709 4.999837,68.549698 4.999837,93.999550 
z"/>
<path fill="#F4F8F4" opacity="1.000000" stroke="none" 
	d="
M151.000000,116.000000 
	C139.219101,116.000000 127.938202,116.000000 116.657303,116.000000 
	C116.658089,115.770874 116.658875,115.541748 116.659660,115.312622 
	C144.224838,115.312622 171.790009,115.312622 199.355194,115.312622 
	C199.358292,115.541748 199.361404,115.770874 199.364502,116.000000 
	C183.409668,116.000000 167.454834,116.000000 151.000000,116.000000 
z"/>
<path fill="#F4F8F4" opacity="1.000000" stroke="none" 
	d="
M278.598450,115.998367 
	C254.936859,115.998703 231.730972,115.998703 208.525070,115.998703 
	C208.526794,115.762367 208.528503,115.526024 208.530212,115.289688 
	C232.832321,115.289688 257.134430,115.289688 281.436554,115.289688 
	C281.442047,115.465401 281.447571,115.641121 281.453064,115.816833 
	C280.653412,115.877235 279.853790,115.937637 278.598450,115.998367 
z"/>
<path fill="#F4F8F4" opacity="1.000000" stroke="none" 
	d="
M22.004021,15.999989 
	C41.440090,15.999989 60.377117,15.999989 79.314140,15.999989 
	C79.314384,16.224026 79.314629,16.448065 79.314873,16.672102 
	C55.107086,16.672102 30.899298,16.672102 6.691509,16.672102 
	C6.681633,16.448065 6.671757,16.224026 6.661880,15.999989 
	C11.609580,15.999989 16.557280,15.999989 22.004021,15.999989 
z"/>
<path fill="#F4F8F4" opacity="1.000000" stroke="none" 
	d="
M89.999878,116.000000 
	C75.229416,116.000000 60.958912,116.000000 46.688408,116.000000 
	C46.688412,115.774033 46.688416,115.548073 46.688419,115.322105 
	C68.234383,115.322105 89.780350,115.322105 111.326317,115.322105 
	C111.333405,115.548073 111.340492,115.774033 111.347580,116.000000 
	C104.398331,116.000000 97.449089,116.000000 89.999878,116.000000 
z"/>
<path fill="#F4F8F4" opacity="1.000000" stroke="none" 
	d="
M98.036346,15.999802 
	C112.456902,15.999802 126.383492,15.999802 140.310089,15.999802 
	C140.310272,16.225821 140.310471,16.451838 140.310654,16.677856 
	C122.770515,16.677856 105.230370,16.677856 87.690224,16.677856 
	C87.683617,16.451839 87.677002,16.225821 87.670387,15.999803 
	C90.961052,15.999803 94.251724,15.999803 98.036346,15.999802 
z"/>
<path fill="#F4F8F4" opacity="1.000000" stroke="none" 
	d="
M284.999878,72.249252 
	C285.000000,85.971642 285.000000,99.224625 285.000000,112.477608 
	C284.756165,112.476044 284.512329,112.474480 284.268494,112.472916 
	C284.268494,97.484039 284.268494,82.495171 284.268494,67.506302 
	C284.512238,67.504608 284.756012,67.502922 284.999756,67.501228 
	C284.999756,68.927429 284.999756,70.353638 284.999878,72.249252 
z"/>
<path fill="#F4F8F4" opacity="1.000000" stroke="none" 
	d="
M302.186615,115.999611 
	C299.981598,115.999588 298.250305,115.999588 296.519012,115.999588 
	C296.521301,115.742462 296.523590,115.485336 296.525848,115.228210 
	C308.757355,115.228210 320.988861,115.228210 333.220367,115.228210 
	C333.225037,115.485352 333.229706,115.742493 333.234406,115.999634 
	C323.043060,115.999634 312.851685,115.999634 302.186615,115.999611 
z"/>
<path fill="#F4F8F4" opacity="1.000000" stroke="none" 
	d="
M349.756470,16.999027 
	C338.687866,16.999125 328.089355,16.999125 317.490814,16.999125 
	C317.492859,16.754913 317.494904,16.510702 317.496948,16.266491 
	C329.836548,16.266491 342.176178,16.266491 354.515808,16.266491 
	C354.517426,16.510637 354.519012,16.754782 354.520630,16.998928 
	C353.089294,16.998928 351.657928,16.998928 349.756470,16.999027 
z"/>
<path fill="#F4F8F4" opacity="1.000000" stroke="none" 
	d="
M13.186549,115.999359 
	C10.981654,115.999260 9.250489,115.999260 7.519323,115.999260 
	C7.521583,115.742249 7.523842,115.485237 7.526101,115.228226 
	C19.423494,115.228226 31.320887,115.228226 43.218281,115.228226 
	C43.223209,115.485306 43.228134,115.742378 43.233063,115.999458 
	C33.375469,115.999458 23.517874,115.999458 13.186549,115.999359 
z"/>
<path fill="#F5F8F2" opacity="1.000000" stroke="none" 
	d="
M293.582642,83.551888 
	C293.563354,93.183319 293.563354,102.835648 293.563354,112.487984 
	C293.423065,112.489288 293.282806,112.490601 293.142517,112.491905 
	C293.142517,103.112167 293.142517,93.732430 293.391632,83.983551 
	C293.640747,83.614418 293.601959,83.572792 293.582642,83.551888 
z"/>
<path fill="#F5F5F0" opacity="1.000000" stroke="none" 
	d="
M147.691376,23.954266 
	C147.905136,24.188528 147.768814,24.469032 147.348862,24.844406 
	C147.249222,24.671057 147.341248,24.358133 147.691376,23.954266 
z"/>
<path fill="#D9482C" opacity="1.000000" stroke="none" 
	d="
M123.004341,107.836273 
	C122.361877,107.100471 121.719421,106.364670 121.046478,104.902328 
	C120.699455,101.783562 120.382896,99.391350 120.066345,96.999130 
	C120.072502,96.245079 120.078651,95.491020 120.043777,93.980011 
	C119.001511,92.503464 118.000267,91.783875 116.999023,91.064285 
	C115.282112,91.011993 113.565201,90.959702 111.032913,90.907928 
	C109.143707,93.628746 107.870949,96.291306 107.059303,99.087708 
	C106.415169,101.306992 106.335640,103.690155 105.536423,105.996811 
	C98.958626,105.992393 92.848000,105.903702 86.741867,106.030884 
	C83.990784,106.088196 82.856819,105.109093 82.963058,102.303200 
	C83.106613,98.511803 82.980621,94.710190 82.993713,90.477753 
	C83.312447,86.027687 83.607758,82.012840 83.903061,77.997993 
	C84.006844,77.565750 84.110626,77.133514 84.376404,76.048859 
	C86.308495,63.930172 88.078590,52.463894 89.848694,40.997612 
	C89.976677,40.268784 90.104668,39.539959 90.396500,38.178207 
	C90.648636,36.696220 90.736938,35.847153 90.825241,34.998089 
	C90.952682,34.264965 91.080116,33.531845 91.361313,32.163925 
	C91.612724,30.685345 91.710358,29.841566 91.807999,28.997786 
	C91.932327,28.262384 92.056648,27.526981 92.316452,26.319904 
	C92.451927,25.848228 92.827164,25.719162 92.934860,26.010180 
	C107.110191,26.178078 121.177834,26.054960 135.245468,25.931841 
	C135.245468,25.931841 135.602203,25.936987 135.808472,26.384998 
	C136.675003,30.222015 137.335266,33.611019 137.995544,37.000023 
	C137.987289,37.449654 137.979050,37.899277 138.046600,39.082230 
	C139.055679,46.217579 139.988968,52.619602 140.679413,59.234047 
	C140.578110,60.617306 140.719650,61.788143 140.936462,63.182442 
	C141.011719,63.405907 141.041855,63.876530 141.031036,64.249474 
	C141.332718,65.744873 141.645218,66.867332 141.988815,68.306084 
	C142.023911,69.046127 142.027908,69.469864 142.024628,70.287094 
	C142.336060,72.117935 142.654739,73.555283 142.999298,75.218384 
	C143.025177,75.444145 143.029587,75.898590 143.023438,76.291489 
	C143.334274,78.119965 143.651260,79.555542 144.095428,81.359756 
	C146.626770,90.291527 148.275375,98.922806 146.579056,107.855766 
	C146.224167,107.779999 145.869278,107.704224 144.795166,107.617645 
	C137.052078,107.683319 130.028214,107.759796 123.004341,107.836273 
M115.930794,47.309746 
	C115.454353,46.660645 114.977913,46.011543 114.501465,45.362446 
	C113.812149,46.308586 112.635979,47.195187 112.511810,48.210445 
	C111.645821,55.290920 110.997719,62.398048 110.171669,70.566002 
	C113.338509,69.929283 115.720795,69.450302 118.638557,68.371460 
	C117.798325,61.591419 116.958092,54.811375 115.930794,47.309746 
z"/>
<path fill="#D9482C" opacity="1.000000" stroke="none" 
	d="
M76.466675,105.014771 
	C75.274979,105.859604 74.083275,106.704430 72.025429,107.548363 
	C66.750008,107.634506 62.340733,107.721550 57.931461,107.808586 
	C55.430004,107.444168 52.928547,107.079758 50.211899,105.947647 
	C49.026531,101.109299 48.056347,97.038635 47.086166,92.967979 
	C47.069469,92.523827 47.052773,92.079674 46.950699,90.944145 
	C46.275513,88.155624 45.685711,86.058479 45.118599,83.627899 
	C45.040710,82.862389 44.940128,82.430321 44.868587,81.678925 
	C44.607098,80.570274 44.316570,79.780952 44.054695,78.653923 
	C43.986725,77.877037 43.890095,77.437866 43.754257,76.647552 
	C41.332504,74.787811 39.262756,74.191269 38.498970,77.806816 
	C37.921112,77.440025 37.553780,77.277077 37.177567,77.138191 
	C37.169281,77.135132 37.005123,77.406731 37.004967,77.550308 
	C36.996410,85.545593 36.844303,93.545174 37.067848,101.534218 
	C37.167263,105.087296 35.927731,106.251869 32.466454,106.049797 
	C28.316370,105.807518 24.122286,105.745239 19.982542,106.063713 
	C15.980721,106.371559 14.890232,104.914352 14.916700,100.984985 
	C15.084993,76.000725 15.013884,51.014839 15.487751,26.016869 
	C22.958477,26.017401 29.963112,26.030560 36.979828,26.507504 
	C36.993889,35.003887 36.997875,43.036488 36.995880,51.069084 
	C36.995544,52.424706 36.748909,54.169174 38.795498,52.437698 
	C40.025955,57.301189 42.200718,55.000229 43.471348,53.215488 
	C44.442520,51.851372 44.403904,49.768345 44.915306,47.681145 
	C45.018402,46.906891 45.020649,46.456589 45.188995,45.780106 
	C45.515034,44.650131 45.674969,43.746349 45.897713,42.722580 
	C45.990776,42.420914 45.953838,42.254269 45.849705,42.102665 
	C45.849705,42.102665 46.012344,41.743336 46.142868,41.334541 
	C46.462860,39.950996 46.652328,38.976238 46.841797,38.001484 
	C46.941181,37.567951 47.040569,37.134415 47.313499,36.111996 
	C47.607777,34.681576 47.728516,33.840042 47.849251,32.998508 
	C47.953617,32.567589 48.057983,32.136673 48.336914,31.081568 
	C48.955704,28.871496 49.399933,27.285614 49.942719,25.999378 
	C55.041454,26.200819 60.041286,26.050682 65.041901,26.016813 
	C72.196815,25.968353 72.181374,26.006618 73.096581,33.295429 
	C73.170837,33.886784 73.661247,34.425884 73.988785,35.368340 
	C72.437698,40.480068 70.726883,45.174404 69.309372,49.955696 
	C67.764786,55.165611 66.492241,60.456181 65.076462,66.088303 
	C65.461884,67.276299 65.871948,68.087585 66.221832,68.903992 
	C66.161644,68.909126 66.199982,68.794563 66.140106,69.176392 
	C66.706596,71.039467 67.332970,72.520721 68.028183,74.193001 
	C68.097023,74.384033 68.091324,74.790108 68.066177,75.206055 
	C70.346634,81.748146 72.652245,87.874298 75.167999,94.312691 
	C75.741791,96.078583 76.105438,97.532234 76.384079,99.410194 
	C76.354942,101.561264 76.410812,103.288010 76.466675,105.014771 
z"/>
<path fill="#D9472B" opacity="1.000000" stroke="none" 
	d="
M156.248810,26.096718 
	C156.994415,25.792774 157.740036,25.488832 159.004532,25.084995 
	C159.688797,25.032230 159.854172,25.079361 160.334900,25.393703 
	C174.017349,25.773071 187.385040,25.844116 200.750885,26.040134 
	C202.840820,26.070784 204.922394,26.670012 207.096725,27.452312 
	C206.062393,33.575172 204.939178,39.252048 203.815964,44.928925 
	C203.815964,44.928925 203.406876,44.990276 202.908478,44.678326 
	C195.107834,44.251450 187.805649,44.093353 180.503235,44.082184 
	C179.689850,44.080940 178.875168,44.915489 178.130417,45.534714 
	C178.199738,45.707005 178.280930,46.069439 178.129974,46.421642 
	C178.651596,47.990376 179.324173,49.206909 180.244415,50.687241 
	C183.654633,52.978664 186.817184,55.006294 189.979736,57.033920 
	C189.979736,57.033920 189.993210,56.995453 190.149719,57.289955 
	C191.199615,58.069092 192.093018,58.553726 192.986420,59.038368 
	C193.061401,59.197514 193.136398,59.356655 193.276459,59.943268 
	C193.623459,60.272270 193.905426,60.173809 194.187393,60.075348 
	C194.187393,60.075352 194.389816,60.218964 194.658875,60.420128 
	C195.280533,60.763885 195.633118,60.906479 195.985703,61.049072 
	C196.425171,61.413742 196.864624,61.778416 197.774765,62.502754 
	C200.488235,64.907433 202.731018,66.952446 204.819809,69.120712 
	C204.910522,69.391457 205.155258,69.538963 205.383926,69.732025 
	C205.367874,69.777596 205.289200,69.721497 205.198105,70.167511 
	C205.403458,76.670532 205.669449,82.729256 206.007568,88.783943 
	C206.215622,92.509506 206.533859,96.228920 206.802612,99.951096 
	C206.808167,100.299889 206.813705,100.648689 206.565521,101.491608 
	C204.196365,103.616379 202.080917,105.247032 199.651291,106.611038 
	C197.693649,106.228516 196.050400,106.016167 194.406677,106.012199 
	C182.454468,105.983368 170.500839,105.898018 158.550735,106.059151 
	C155.169266,106.104744 153.660004,105.195091 153.934662,101.591743 
	C154.194763,98.179298 153.990570,94.731461 153.990570,91.299187 
	C153.805237,91.316040 153.619919,91.332893 153.434586,91.349747 
	C153.015411,96.224823 152.596237,101.099892 152.100647,105.513885 
	C152.014679,99.035141 152.005127,93.017487 151.995575,86.999832 
	C151.995560,86.999832 152.000488,87.000000 152.463226,86.919754 
	C162.275314,86.839516 171.624664,86.839516 182.720032,86.839516 
	C181.034515,83.769424 180.009598,81.902580 178.984680,80.035728 
	C178.582535,79.690453 178.180405,79.345169 177.374390,78.722031 
	C176.643402,78.310394 176.316284,78.176620 175.989182,78.042847 
	C175.546097,77.671364 175.103012,77.299873 174.184372,76.588501 
	C170.136047,73.934883 166.563278,71.621155 162.990509,69.307426 
	C162.990509,69.307426 162.653915,69.006256 162.299820,68.733955 
	C161.624771,68.331512 161.303818,68.201370 160.982864,68.071228 
	C160.577225,67.718033 160.171600,67.364830 159.361053,66.733154 
	C158.633896,66.317101 158.311646,66.179504 157.989380,66.041916 
	C157.326187,65.390213 156.663010,64.738518 155.575943,63.659676 
	C154.452423,61.820511 153.752792,60.408485 153.336548,58.691483 
	C153.506500,48.930637 153.393051,39.474773 153.345642,29.715328 
	C154.357391,28.306738 155.303101,27.201727 156.248810,26.096718 
z"/>
<path fill="#D9482C" opacity="1.000000" stroke="none" 
	d="
M338.154724,60.977272 
	C337.774567,61.764595 337.394409,62.551918 336.768341,63.929298 
	C334.007690,70.997375 331.493011,77.475395 328.767395,84.139122 
	C328.488953,84.860893 328.421478,85.396957 328.290588,86.272850 
	C328.276337,87.068504 328.325531,87.524323 328.290039,88.440849 
	C328.261139,93.603966 328.316986,98.306366 328.297882,103.378418 
	C328.279755,104.495827 328.336609,105.243591 328.174438,106.413284 
	C319.347168,106.783813 310.738953,106.732414 302.130707,106.681015 
	C302.130707,106.681015 302.226685,106.352066 302.298950,105.950027 
	C302.288849,105.018326 302.206543,104.488663 302.243103,103.512390 
	C303.500153,90.514847 301.857330,78.529716 295.141724,67.576637 
	C295.141724,67.576637 295.167786,67.249138 295.051941,66.780785 
	C294.331512,65.092690 293.726959,63.872944 293.122375,62.653206 
	C293.122375,62.653206 293.136932,62.292545 293.019531,61.811668 
	C292.313904,60.165268 291.725708,58.999744 291.137482,57.834221 
	C291.137482,57.834225 291.088593,57.953239 291.097321,57.542648 
	C287.553131,46.996315 281.442444,37.540241 283.333130,26.063318 
	C291.896698,26.035540 299.983063,26.029236 308.119629,26.366568 
	C308.057373,27.158909 307.944946,27.607616 307.697693,28.138508 
	C307.381073,28.534561 307.473236,28.773539 308.053711,29.295616 
	C308.911224,32.403763 309.553223,35.154171 310.197632,37.904022 
	C311.686920,44.259022 313.177399,50.613747 314.667389,56.968582 
	C315.246796,56.982349 315.826202,56.996120 316.405640,57.009888 
	C318.328064,46.739124 320.250488,36.468365 322.622070,26.110313 
	C328.222504,26.013624 333.377777,26.121613 338.523193,25.944235 
	C341.015594,25.858315 343.489502,25.237108 345.971802,24.858253 
	C346.658234,26.964619 347.344666,29.070982 348.030487,31.919147 
	C348.075562,33.108315 348.121277,33.555679 348.166992,34.003036 
	C348.084595,34.746368 348.002258,35.489697 347.721130,36.800293 
	C347.373474,37.911896 347.224609,38.456242 347.075714,39.000587 
	C347.075714,39.000584 346.857422,39.278122 346.618164,39.699715 
	C345.938599,41.414314 345.498291,42.707317 345.057953,44.000324 
	C345.057953,44.000324 344.836151,44.252602 344.574402,44.676853 
	C342.640594,49.403667 340.968536,53.706230 339.296448,58.008789 
	C339.154022,58.335487 339.011627,58.662189 338.640503,59.438118 
	C338.326111,60.250652 338.240417,60.613960 338.154724,60.977272 
z"/>
<path fill="#F5F5F0" opacity="1.000000" stroke="none" 
	d="
M151.575195,86.999146 
	C152.005127,93.017487 152.014679,99.035141 152.015350,105.768478 
	C151.984512,106.661728 151.962555,106.839294 151.940582,107.016861 
	C150.420776,107.321617 148.900970,107.626373 146.980103,107.893448 
	C148.275375,98.922806 146.626770,90.291527 144.240570,80.986778 
	C143.848862,78.796310 143.439224,77.347450 143.029587,75.898590 
	C143.029587,75.898590 143.025177,75.444145 143.161743,74.849411 
	C142.876160,72.800987 142.454025,71.347298 142.031891,69.893608 
	C142.027908,69.469864 142.023911,69.046127 142.119690,67.943672 
	C141.826920,66.135483 141.434387,65.006004 141.041855,63.876530 
	C141.041855,63.876530 141.011719,63.405907 141.037415,62.792091 
	C141.016159,61.126060 140.969193,60.073845 140.922241,59.021629 
	C139.988968,52.619602 139.055679,46.217579 138.147949,39.405952 
	C139.375214,40.271519 141.429520,41.425968 141.630142,42.842888 
	C142.471283,48.783428 142.758179,54.802513 143.241577,60.793350 
	C143.254440,60.952850 143.120361,61.151287 143.176926,61.276314 
	C146.419968,68.444366 144.418259,76.436508 146.764511,83.833015 
	C147.664978,86.671753 148.810776,87.152939 151.575195,86.999146 
z"/>
<path fill="#F5F5F0" opacity="1.000000" stroke="none" 
	d="
M199.965469,106.877678 
	C202.080917,105.247032 204.196365,103.616379 206.580261,101.755623 
	C206.431015,105.979088 202.933899,110.684471 198.812332,110.764488 
	C184.093750,111.050240 169.366241,110.876297 153.337799,110.876297 
	C155.185089,109.395973 155.978226,108.760384 157.349777,107.776825 
	C160.734726,107.418076 163.541641,107.432671 166.347763,107.392067 
	C177.553802,107.229935 188.759583,107.050629 199.965469,106.877678 
z"/>
<path fill="#D3391D" opacity="1.000000" stroke="none" 
	d="
M15.021660,26.029493 
	C15.013884,51.014839 15.084993,76.000725 14.916700,100.984985 
	C14.890232,104.914352 15.980721,106.371559 19.982542,106.063713 
	C24.122286,105.745239 28.316370,105.807518 32.466454,106.049797 
	C35.927731,106.251869 37.167263,105.087296 37.067848,101.534218 
	C36.844303,93.545174 36.996410,85.545593 37.004967,77.550308 
	C37.005123,77.406731 37.169281,77.135132 37.177567,77.138191 
	C37.553780,77.277077 37.921112,77.440025 38.569336,78.270142 
	C38.800880,87.639153 38.752579,96.338188 38.510273,105.244987 
	C38.218193,106.007668 38.120117,106.562576 38.022041,107.117493 
	C37.528404,107.396576 37.034771,107.675667 35.807205,107.979454 
	C28.381319,108.053574 21.689369,108.102989 14.997417,108.152405 
	C14.377254,107.642319 13.757092,107.132225 13.415380,105.977379 
	C13.796861,103.848686 13.988786,102.364807 13.989681,100.880806 
	C14.004736,75.926201 13.995974,50.971588 14.249830,26.016766 
	C14.678661,26.020866 14.850161,26.025181 15.021660,26.029493 
z"/>
<path fill="#CD3115" opacity="1.000000" stroke="none" 
	d="
M219.947311,107.732117 
	C218.326294,107.538506 216.705292,107.344894 214.390884,107.068459 
	C214.390884,80.422157 214.390884,53.771324 214.556671,26.638155 
	C214.722443,26.155821 215.032654,26.008078 215.286591,26.017006 
	C215.709839,26.030291 215.879181,26.034647 216.030396,26.503553 
	C216.008347,51.521618 216.124176,76.076263 215.892746,100.627632 
	C215.849869,105.174629 217.308182,106.353409 221.573166,106.084633 
	C227.026627,105.740952 232.517471,105.990837 238.315216,105.989105 
	C239.068832,105.997421 239.499451,106.001549 240.003922,106.305313 
	C240.081116,106.810661 240.084442,107.016365 240.087753,107.222076 
	C239.000290,107.302322 237.912842,107.382568 235.987122,107.458138 
	C230.081696,107.546349 225.014496,107.639229 219.947311,107.732117 
z"/>
<path fill="#F5F5F0" opacity="1.000000" stroke="none" 
	d="
M307.832520,28.056326 
	C307.944946,27.607616 308.057373,27.158909 308.192230,26.104813 
	C308.195343,25.319405 308.175995,25.139385 308.156647,24.959364 
	C312.998352,25.667219 312.435089,29.803024 312.898590,32.963264 
	C313.345123,36.007694 312.995209,39.168934 312.995209,42.820351 
	C314.960327,42.271564 316.303894,41.896355 317.582672,41.539238 
	C317.220123,35.505249 317.197968,29.859983 321.602539,25.368187 
	C322.047363,25.801195 322.110107,25.999395 322.172882,26.197598 
	C320.250488,36.468365 318.328064,46.739124 316.405640,57.009888 
	C315.826202,56.996120 315.246796,56.982349 314.667389,56.968582 
	C313.177399,50.613747 311.686920,44.259022 310.197632,37.904022 
	C309.553223,35.154171 308.911224,32.403763 308.095856,29.075043 
	C307.923615,28.496477 307.832550,28.056328 307.832520,28.056326 
z"/>
<path fill="#F5F5F0" opacity="1.000000" stroke="none" 
	d="
M240.099457,24.971420 
	C243.139008,24.824381 243.019577,26.909552 243.010300,29.003458 
	C242.982239,35.332752 243.015747,41.662304 242.993958,47.991646 
	C242.986694,50.102600 242.948181,52.004738 245.975983,52.014225 
	C248.969254,52.023602 249.021667,50.189945 249.011398,48.040527 
	C248.980347,41.544693 248.922958,35.046913 249.064117,28.553984 
	C249.094421,27.159794 249.915955,25.782803 250.546158,25.048065 
	C250.770355,35.145107 250.821411,44.591972 250.559464,54.228466 
	C246.750076,55.985004 243.265381,57.268780 240.019501,53.528416 
	C240.022751,44.039120 239.975159,35.015717 240.018616,25.745182 
	C240.106277,25.322512 240.102875,25.146967 240.099457,24.971420 
z"/>
<path fill="#F8FFFF" opacity="1.000000" stroke="none" 
	d="
M276.453735,25.950548 
	C276.797821,25.966402 277.141907,25.982254 277.743408,26.464352 
	C278.001770,31.953302 278.002716,36.976006 278.003662,41.998711 
	C278.002625,44.041183 278.001587,46.083652 278.000916,49.032272 
	C278.002869,68.959129 278.004486,87.979836 278.006104,107.000542 
	C277.615448,106.764503 277.224823,106.528473 276.553955,105.685928 
	C276.333740,78.703133 276.393738,52.326839 276.453735,25.950548 
z"/>
<path fill="#F9F7F1" opacity="1.000000" stroke="none" 
	d="
M49.844158,25.699730 
	C49.399933,27.285614 48.955704,28.871496 48.310715,30.748621 
	C46.243298,25.984268 47.855503,23.091190 52.724476,23.023125 
	C58.889614,22.936937 65.061333,23.144236 71.221565,22.950138 
	C75.043556,22.829712 76.257431,24.537828 76.032005,28.075603 
	C75.862785,30.731340 75.998787,33.406525 75.724976,36.747177 
	C74.635704,39.612785 73.820358,41.804264 73.005005,43.995743 
	C71.187653,49.296284 68.933060,54.498707 67.713509,59.933399 
	C66.956528,63.306698 67.768997,67.032188 67.593315,70.812019 
	C66.939735,70.281151 66.569855,69.537857 66.199982,68.794563 
	C66.199982,68.794563 66.161644,68.909126 66.194061,68.554382 
	C65.851349,67.370285 65.476227,66.540939 65.101105,65.711586 
	C66.492241,60.456181 67.764786,55.165611 69.309372,49.955696 
	C70.726883,45.174404 72.437698,40.480068 74.088211,34.913361 
	C74.157127,31.129580 74.157127,28.179861 74.157127,24.384274 
	C65.793442,24.836792 57.818802,25.268261 49.844158,25.699730 
z"/>
<path fill="#F5F5F0" opacity="1.000000" stroke="none" 
	d="
M278.350830,41.939217 
	C278.002716,36.976006 278.001770,31.953302 278.002106,26.463297 
	C279.100189,25.665819 280.197021,25.335644 281.665802,25.264116 
	C282.310486,25.710106 282.583221,25.897449 282.855927,26.084793 
	C281.442444,37.540241 287.553131,46.996315 291.148132,57.503220 
	C284.934845,55.544422 284.882629,49.804775 284.029541,44.602528 
	C283.272186,39.984467 282.487427,39.489605 278.350830,41.939217 
z"/>
<path fill="#000000" opacity="1.000000" stroke="none" 
	d="
M78.952927,63.122574 
	C78.430519,67.971237 77.908119,72.819893 77.301781,78.447594 
	C69.654305,65.777733 78.390396,54.883400 78.059181,43.237671 
	C83.221489,45.001102 80.656998,49.063690 80.860146,51.931641 
	C81.086151,55.122379 80.228050,58.389904 79.423256,61.384937 
	C78.866074,60.540188 78.727531,59.934502 78.588989,59.328815 
	C78.314850,59.407513 78.040710,59.486210 77.766579,59.564907 
	C78.162025,60.750797 78.557472,61.936684 78.952927,63.122574 
z"/>
<path fill="#F5F5F0" opacity="1.000000" stroke="none" 
	d="
M240.350006,107.426926 
	C240.084442,107.016365 240.081116,106.810661 240.080536,105.841705 
	C240.046997,95.387451 240.010712,85.696434 240.263275,75.790749 
	C243.768570,75.643585 246.985016,75.711098 250.180237,76.023178 
	C250.208954,76.614891 250.382034,76.882362 250.695374,77.397095 
	C250.634918,78.149536 250.557343,78.575020 250.479767,79.000504 
	C248.406235,78.667854 246.332672,78.335213 243.590088,77.895233 
	C243.419907,79.269493 243.046600,80.960762 243.029312,82.655663 
	C242.959747,89.470711 243.142715,96.292137 242.891495,103.098618 
	C242.834763,104.635620 241.408218,106.122055 240.350006,107.426926 
z"/>
<path fill="#F5F5F0" opacity="1.000000" stroke="none" 
	d="
M278.398621,106.902542 
	C278.004486,87.979836 278.002869,68.959129 278.002594,49.469948 
	C278.647217,49.612892 279.848694,50.220776 279.852600,50.836246 
	C279.966522,68.826454 279.973755,86.817467 279.924744,104.808144 
	C279.922913,105.474640 279.185669,106.139130 278.398621,106.902542 
z"/>
<path fill="#C93115" opacity="1.000000" stroke="none" 
	d="
M276.135498,25.925114 
	C276.393738,52.326839 276.333740,78.703133 276.374878,105.537994 
	C274.284088,106.484360 272.092163,106.972145 269.024719,107.456444 
	C262.726013,107.569603 257.302826,107.686249 251.879608,107.802902 
	C251.879608,107.802902 251.871216,107.483681 251.922165,107.023804 
	C251.992355,106.362892 252.011581,106.161858 252.495880,105.978996 
	C258.602234,105.999496 264.260223,105.736649 269.879456,106.089973 
	C274.197083,106.361443 275.104218,104.658195 275.077209,100.671432 
	C274.908783,75.784439 274.976959,50.895844 275.013214,25.955086 
	C275.059692,25.902395 275.182098,25.833355 275.182098,25.833355 
	C275.393799,25.855463 275.605530,25.877573 276.135498,25.925114 
z"/>
<path fill="#F5F5F0" opacity="1.000000" stroke="none" 
	d="
M89.488472,41.056553 
	C88.078590,52.463894 86.308495,63.930172 84.337677,75.715744 
	C83.464493,75.130814 82.118866,74.139534 82.222824,73.335732 
	C83.365265,64.501976 84.600403,55.674061 86.139610,46.902332 
	C86.497734,44.861420 88.098984,43.038639 89.488472,41.056553 
z"/>
<path fill="#F5F5F0" opacity="1.000000" stroke="none" 
	d="
M295.074799,67.984894 
	C301.857330,78.529716 303.500153,90.514847 302.057312,103.522064 
	C301.505219,103.996269 301.257446,104.004395 301.009338,104.002747 
	C300.672882,100.783348 299.863220,97.528854 300.098785,94.351860 
	C300.584839,87.796936 298.872894,82.027603 295.843201,76.290619 
	C294.695435,74.117218 295.236572,71.051918 295.074799,67.984894 
z"/>
<path fill="#F5F5F0" opacity="1.000000" stroke="none" 
	d="
M178.829010,80.385498 
	C180.009598,81.902580 181.034515,83.769424 182.720032,86.839516 
	C171.624664,86.839516 162.275314,86.839516 152.462677,86.917068 
	C151.779327,84.059959 153.697159,83.966660 155.853241,83.983604 
	C161.941391,84.031441 168.043488,84.218765 174.109604,83.849693 
	C175.688156,83.753662 177.155106,81.823181 178.829010,80.385498 
z"/>
<path fill="#F5F5F0" opacity="1.000000" stroke="none" 
	d="
M76.836327,105.011398 
	C76.410812,103.288010 76.354942,101.561264 76.519791,99.383293 
	C76.740501,98.932076 77.011673,98.876961 77.375381,98.909531 
	C78.422318,98.421616 79.105545,97.901131 79.788773,97.380646 
	C78.859894,96.921341 77.931015,96.462044 76.994751,95.618439 
	C76.658455,93.490265 76.329536,91.746384 76.000610,90.002502 
	C77.396904,90.273216 78.793198,90.543922 80.796799,90.932373 
	C80.995842,87.263474 81.057030,83.936432 81.431244,80.644981 
	C81.536667,79.717712 82.559807,78.894783 83.532547,78.011002 
	C83.607758,82.012840 83.312447,86.027687 82.647064,90.679443 
	C81.820564,95.878220 81.364143,100.440094 80.907722,105.001961 
	C79.673805,105.003983 78.439896,105.006012 76.836327,105.011398 
z"/>
<path fill="#CC5038" opacity="1.000000" stroke="none" 
	d="
M13.992499,26.016977 
	C13.995974,50.971588 14.004736,75.926201 13.989681,100.880806 
	C13.988786,102.364807 13.796861,103.848686 13.444025,105.660789 
	C13.138087,105.817841 13.081954,105.646729 13.002134,104.757378 
	C12.936204,78.371262 12.893960,52.703381 12.851717,27.035501 
	C12.910628,26.854954 12.969541,26.674404 13.314986,26.233244 
	C13.601519,25.972633 13.992499,26.016977 13.992499,26.016977 
z"/>
<path fill="#FFFFFC" opacity="1.000000" stroke="none" 
	d="
M12.592297,27.354523 
	C12.893960,52.703381 12.936204,78.371262 12.914991,104.501694 
	C12.567664,103.715065 12.038684,102.466362 12.036195,101.216621 
	C11.988647,77.349991 12.000463,53.483238 12.018357,29.616526 
	C12.018844,28.968788 12.223454,28.321203 12.592297,27.354523 
z"/>
<path fill="#F5F5F0" opacity="1.000000" stroke="none" 
	d="
M251.930115,108.170135 
	C257.302826,107.686249 262.726013,107.569603 268.602142,107.592072 
	C270.520416,108.467026 271.985748,109.202858 273.451111,109.938690 
	C273.442596,110.253174 273.434052,110.567657 273.425537,110.882141 
	C266.755585,110.882141 260.084473,110.931923 253.417923,110.781036 
	C252.922150,110.769814 252.458969,109.318954 251.930115,108.170135 
z"/>
<path fill="#F9F7F1" opacity="1.000000" stroke="none" 
	d="
M44.814461,48.005100 
	C44.403904,49.768345 44.442520,51.851372 43.471348,53.215488 
	C42.200718,55.000229 40.025955,57.301189 38.863548,51.970314 
	C38.799686,43.387886 38.752548,35.670052 38.798218,27.593309 
	C38.919724,26.493193 38.948425,25.751986 38.977127,25.010778 
	C39.651218,26.589235 40.686260,28.117598 40.913918,29.758009 
	C41.246643,32.155506 40.999939,34.633419 41.000389,38.003956 
	C41.000576,43.081463 41.000576,47.232071 41.000576,52.394302 
	C42.881172,50.230022 43.847816,49.117561 44.814461,48.005100 
z"/>
<path fill="#F5F5F0" opacity="1.000000" stroke="none" 
	d="
M219.814575,108.013199 
	C225.014496,107.639229 230.081696,107.546349 235.600739,107.592422 
	C236.567322,108.536514 237.082062,109.341652 237.881500,110.592110 
	C230.505157,110.592110 223.574081,110.592110 216.643005,110.592110 
	C216.587128,110.342865 216.531250,110.093620 216.475372,109.844376 
	C217.544205,109.327675 218.613022,108.810974 219.814575,108.013199 
z"/>
<path fill="#F5F5F0" opacity="1.000000" stroke="none" 
	d="
M57.772942,108.095184 
	C62.340733,107.721550 66.750008,107.634506 71.612854,107.676483 
	C72.581795,108.589485 73.097168,109.373459 73.927849,110.637070 
	C66.540733,110.637070 59.648426,110.637070 52.756119,110.637070 
	C52.692108,110.340057 52.628094,110.043037 52.564083,109.746025 
	C54.247528,109.291275 55.930977,108.836525 57.772942,108.095184 
z"/>
<path fill="#F5F5F0" opacity="1.000000" stroke="none" 
	d="
M99.004791,107.519135 
	C100.465408,108.313164 101.926033,109.107201 104.365677,110.433456 
	C96.914604,110.433456 90.386696,110.433456 83.381279,110.433456 
	C83.898933,109.579559 84.343925,108.845505 85.355507,107.781189 
	C90.282997,107.473656 94.643890,107.496391 99.004791,107.519135 
z"/>
<path fill="#F9F7F1" opacity="1.000000" stroke="none" 
	d="
M38.704277,105.037224 
	C38.752579,96.338188 38.800880,87.639153 38.778824,78.476791 
	C39.262756,74.191269 41.332504,74.787811 43.354153,76.671715 
	C42.329151,78.295395 41.170959,79.513565 41.092442,80.797752 
	C40.844612,84.850975 41.001366,88.928947 41.001575,92.997337 
	C40.597851,97.599739 40.194130,102.202133 39.374496,106.569824 
	C38.873814,105.902481 38.789047,105.469849 38.704277,105.037224 
z"/>
<path fill="#F5F5F0" opacity="1.000000" stroke="none" 
	d="
M123.018806,108.261414 
	C130.028214,107.759796 137.052078,107.683319 144.535217,107.708084 
	C144.267181,108.859909 143.577530,110.788422 142.806580,110.821495 
	C136.905762,111.074577 130.986862,111.034431 125.080429,110.857445 
	C124.376999,110.836365 123.714661,109.443535 123.018806,108.261414 
z"/>
<path fill="#CE361A" opacity="1.000000" stroke="none" 
	d="
M199.651291,106.611038 
	C188.759583,107.050629 177.553802,107.229935 166.347763,107.392067 
	C163.541641,107.432671 160.734726,107.418076 157.462006,107.475471 
	C155.577454,107.455414 154.159042,107.388748 152.340607,107.169479 
	C151.962555,106.839294 151.984512,106.661728 152.091766,106.229568 
	C152.596237,101.099892 153.015411,96.224823 153.434586,91.349747 
	C153.619919,91.332893 153.805237,91.316040 153.990570,91.299187 
	C153.990570,94.731461 154.194763,98.179298 153.934662,101.591743 
	C153.660004,105.195091 155.169266,106.104744 158.550735,106.059151 
	C170.500839,105.898018 182.454468,105.983368 194.406677,106.012199 
	C196.050400,106.016167 197.693649,106.228516 199.651291,106.611038 
z"/>
<path fill="#F5F5F0" opacity="1.000000" stroke="none" 
	d="
M328.978333,83.953415 
	C331.493011,77.475395 334.007690,70.997375 336.761078,64.259598 
	C336.237457,68.194962 335.746582,72.463821 334.632904,76.563507 
	C333.614685,80.311951 331.922821,83.877403 329.988708,87.761406 
	C329.091339,87.992928 328.733032,87.986534 328.374756,87.980141 
	C328.325531,87.524323 328.276337,87.068504 328.469543,86.070793 
	C328.800751,85.003738 328.889526,84.478577 328.978333,83.953415 
z"/>
<path fill="#F5F5F0" opacity="1.000000" stroke="none" 
	d="
M15.020699,108.556557 
	C21.689369,108.102989 28.381319,108.053574 35.537876,108.070412 
	C35.341568,109.073524 34.705742,110.801109 34.015800,110.822998 
	C28.127935,111.009804 22.229195,110.927933 16.337616,110.775467 
	C15.891047,110.763901 15.474487,109.592804 15.020699,108.556557 
z"/>
<path fill="#F5F5F0" opacity="1.000000" stroke="none" 
	d="
M204.190002,44.912720 
	C204.939178,39.252048 206.062393,33.575172 207.188812,27.118158 
	C207.188538,25.876572 207.185059,25.415119 207.181580,24.953667 
	C207.955887,25.193277 209.108994,25.189238 209.444611,25.711023 
	C212.146713,29.911871 208.992142,42.033894 204.190002,44.912720 
z"/>
<path fill="#000000" opacity="1.000000" stroke="none" 
	d="
M165.879883,79.009102 
	C161.260544,79.502243 156.233856,79.925499 152.008530,80.281281 
	C152.008530,77.043571 152.008530,74.685944 152.008530,72.408562 
	C156.602463,74.636826 161.037506,76.788025 165.879883,79.009102 
z"/>
<path fill="#F6EDE9" opacity="1.000000" stroke="none" 
	d="
M302.121277,107.029022 
	C310.738953,106.732414 319.347168,106.783813 328.440063,106.412071 
	C329.278687,105.995064 329.632629,106.001198 329.986572,106.007339 
	C328.897339,106.998672 327.808075,107.990013 325.888428,108.987076 
	C318.040741,108.993988 311.023468,108.995163 304.006195,108.996338 
	C303.374756,108.456573 302.743317,107.916801 302.121277,107.029022 
z"/>
<path fill="#F5F5F0" opacity="1.000000" stroke="none" 
	d="
M106.005424,106.000549 
	C106.335640,103.690155 106.415169,101.306992 107.059303,99.087708 
	C107.870949,96.291306 109.143707,93.628746 110.609207,90.983101 
	C110.887306,94.891907 111.088310,98.774147 110.512825,102.537659 
	C110.265839,104.152878 108.405548,105.521400 106.808868,106.741806 
	C106.228134,106.321236 106.116776,106.160889 106.005424,106.000549 
z"/>
<path fill="#C7260D" opacity="1.000000" stroke="none" 
	d="
M250.872467,54.038837 
	C250.821411,44.591972 250.770355,35.145107 250.834564,25.224762 
	C258.870636,24.859207 266.791443,24.967131 274.947205,25.454205 
	C275.182098,25.833355 275.059692,25.902395 274.546997,25.950779 
	C268.035187,25.999050 262.032928,26.114189 256.038330,25.949987 
	C253.060364,25.868412 251.843872,26.805895 251.944427,29.925993 
	C252.132172,35.752380 252.098236,41.591805 251.945450,47.420273 
	C251.887405,49.634315 251.247299,51.833099 250.872467,54.038837 
z"/>
<path fill="#CE3D22" opacity="1.000000" stroke="none" 
	d="
M105.536423,105.996811 
	C106.116776,106.160889 106.228134,106.321236 106.447533,106.753708 
	C104.351395,107.170670 102.147224,107.315514 99.473923,107.489738 
	C94.643890,107.496391 90.282997,107.473656 85.458633,107.485352 
	C83.683197,106.950157 82.371216,106.380531 80.983482,105.406433 
	C81.364143,100.440094 81.820564,95.878220 82.623627,91.114655 
	C82.980621,94.710190 83.106613,98.511803 82.963058,102.303200 
	C82.856819,105.109093 83.990784,106.088196 86.741867,106.030884 
	C92.848000,105.903702 98.958626,105.992393 105.536423,105.996811 
z"/>
<path fill="#F5F5F0" opacity="1.000000" stroke="none" 
	d="
M178.280930,46.069435 
	C178.280930,46.069439 178.199738,45.707005 178.526062,45.515793 
	C179.902206,45.390835 180.952011,45.457088 182.001831,45.523342 
	C184.660385,49.108299 187.318939,52.693256 189.978607,56.656067 
	C186.817184,55.006294 183.654633,52.978664 180.233063,50.386303 
	C179.409683,48.570858 178.845306,47.320148 178.280930,46.069435 
z"/>
<path fill="#C5270E" opacity="1.000000" stroke="none" 
	d="
M206.706284,24.876442 
	C207.185059,25.415119 207.188538,25.876572 207.099930,26.672176 
	C204.922394,26.670012 202.840820,26.070784 200.750885,26.040134 
	C187.385040,25.844116 174.017349,25.773071 160.569870,25.284664 
	C160.640213,24.824244 160.790970,24.740076 160.941711,24.655907 
	C176.038132,24.703676 191.134567,24.751446 206.706284,24.876442 
z"/>
<path fill="#F8FFFE" opacity="1.000000" stroke="none" 
	d="
M207.340576,75.007790 
	C207.762314,75.255966 208.555405,75.509514 208.551895,75.751526 
	C208.441055,83.405327 208.252869,91.058022 207.670547,98.386459 
	C207.289993,90.377289 207.315277,82.692543 207.340576,75.007790 
z"/>
<path fill="#EEBDB1" opacity="1.000000" stroke="none" 
	d="
M322.622070,26.110312 
	C322.110107,25.999395 322.047363,25.801195 321.952454,25.292686 
	C329.733917,24.757212 337.547516,24.532040 345.666443,24.582561 
	C343.489502,25.237108 341.015594,25.858315 338.523193,25.944235 
	C333.377777,26.121613 328.222504,26.013624 322.622070,26.110312 
z"/>
<path fill="#C6280E" opacity="1.000000" stroke="none" 
	d="
M135.030853,25.529768 
	C121.177834,26.054960 107.110191,26.178078 92.948029,25.782158 
	C92.853508,25.263117 92.931244,24.812626 92.931244,24.812626 
	C106.892906,24.917650 120.854561,25.022673 135.030853,25.529768 
z"/>
<path fill="#F5F5F0" opacity="1.000000" stroke="none" 
	d="
M150.957428,55.067116 
	C150.419159,54.728413 149.404739,54.378029 149.412704,54.052719 
	C149.583298,47.096634 149.868515,40.143353 150.567413,33.103065 
	C151.003357,33.016602 151.103561,33.102425 151.059662,33.562233 
	C151.037170,40.988636 151.058578,47.955231 151.048019,54.957031 
	C151.016052,54.992237 150.957428,55.067120 150.957428,55.067116 
z"/>
<path fill="#F5F5F0" opacity="1.000000" stroke="none" 
	d="
M304.100952,109.390259 
	C311.023468,108.995163 318.040741,108.993988 325.525879,108.994576 
	C325.810272,109.452248 325.619659,110.309372 325.444305,110.306259 
	C318.360565,110.180710 311.278198,109.977478 304.100952,109.390259 
z"/>
<path fill="#F5F5F0" opacity="1.000000" stroke="none" 
	d="
M41.335358,92.938751 
	C41.001366,88.928947 40.844612,84.850975 41.092442,80.797752 
	C41.170959,79.513565 42.329151,78.295395 43.393364,77.022858 
	C43.890095,77.437866 43.986725,77.877037 43.805649,78.845642 
	C43.965149,80.249466 44.402351,81.123856 44.839550,81.998253 
	C44.940128,82.430321 45.040710,82.862389 44.845901,83.832878 
	C44.366867,85.246719 44.183220,86.122139 43.999573,86.997559 
	C43.222763,88.958427 42.445953,90.919296 41.335358,92.938751 
z"/>
<path fill="#F5F5F0" opacity="1.000000" stroke="none" 
	d="
M44.915306,47.681145 
	C43.847816,49.117561 42.881172,50.230022 41.000576,52.394302 
	C41.000576,47.232071 41.000576,43.081463 41.001053,38.466766 
	C42.375271,39.174030 43.749016,40.345387 45.486229,41.809708 
	C45.953838,42.254269 45.990776,42.420914 45.541985,42.829597 
	C45.089931,44.039829 45.056416,45.023060 45.022896,46.006290 
	C45.020649,46.456589 45.018402,46.906891 44.915306,47.681145 
z"/>
<path fill="#F5F5F0" opacity="1.000000" stroke="none" 
	d="
M339.656860,57.996960 
	C340.968536,53.706230 342.640594,49.403667 344.585602,44.844437 
	C346.531860,50.806900 344.727081,55.801376 339.656860,57.996960 
z"/>
<path fill="#D4391E" opacity="1.000000" stroke="none" 
	d="
M153.279602,30.018906 
	C153.393051,39.474773 153.506500,48.930637 153.200195,58.507828 
	C152.696686,58.315681 152.512009,58.081944 152.226425,57.927940 
	C152.213135,57.490238 152.199844,57.052536 152.128860,56.059860 
	C152.038528,55.339836 152.005905,55.174789 152.273438,54.717545 
	C152.403137,47.289818 152.232635,40.154285 152.150574,32.705570 
	C152.585861,31.601223 152.932739,30.810064 153.279602,30.018906 
z"/>
<path fill="#F5F5F0" opacity="1.000000" stroke="none" 
	d="
M204.973816,68.997467 
	C202.731018,66.952446 200.488235,64.907433 198.048065,62.605705 
	C198.185837,61.993866 198.512238,61.339756 198.857437,61.329681 
	C202.467865,61.224232 207.780090,67.697029 206.884766,71.548004 
	C206.122269,71.008240 205.705734,70.364868 205.289200,69.721497 
	C205.289200,69.721497 205.367874,69.777596 205.329865,69.527817 
	C205.291855,69.278030 204.973816,68.997467 204.973816,68.997467 
z"/>
<path fill="#CB3B20" opacity="1.000000" stroke="none" 
	d="
M205.198105,70.167511 
	C205.705734,70.364868 206.122269,71.008240 206.738068,71.870918 
	C206.937332,72.090225 206.991837,72.057594 206.944183,72.367477 
	C207.002563,73.102882 207.108627,73.528397 207.214691,73.953911 
	C207.188293,74.135223 207.161896,74.316544 207.238037,74.752823 
	C207.315277,82.692543 207.289993,90.377289 207.311829,98.528061 
	C207.262711,99.151527 207.166473,99.308968 206.936432,99.708755 
	C206.533859,96.228920 206.215622,92.509506 206.007568,88.783943 
	C205.669449,82.729256 205.403458,76.670532 205.198105,70.167511 
z"/>
<path fill="#F5F5F0" opacity="1.000000" stroke="none" 
	d="
M163.000977,69.656479 
	C166.563278,71.621155 170.136047,73.934883 173.896301,76.520645 
	C169.778076,77.735924 165.293640,74.987038 163.000977,69.656479 
z"/>
<path fill="#C7230C" opacity="1.000000" stroke="none" 
	d="
M252.030823,105.960823 
	C252.011581,106.161858 251.992355,106.362892 251.929260,106.864288 
	C251.497879,105.715538 250.798950,104.271538 250.774979,102.816429 
	C250.649277,95.185234 250.694458,87.551231 250.580017,79.459351 
	C250.557343,78.575020 250.634918,78.149536 250.840378,77.144714 
	C251.002319,76.374374 251.036362,76.183365 251.349976,76.301041 
	C251.763306,86.393417 251.897064,96.177124 252.030823,105.960823 
z"/>
<path fill="#F6EDE9" opacity="1.000000" stroke="none" 
	d="
M328.290039,88.440849 
	C328.733032,87.986534 329.091339,87.992928 329.718079,88.002106 
	C329.987274,92.690491 329.987946,97.376099 329.718994,102.530396 
	C329.090546,103.002312 328.731689,103.005539 328.372833,103.008774 
	C328.316986,98.306366 328.261139,93.603966 328.290039,88.440849 
z"/>
<path fill="#D0472E" opacity="1.000000" stroke="none" 
	d="
M74.957870,94.000443 
	C72.652245,87.874298 70.346634,81.748146 68.331528,75.396881 
	C69.037697,75.926041 69.453362,76.680313 69.869026,77.434593 
	C69.908447,77.804260 69.947876,78.173927 70.130844,79.046677 
	C70.480118,79.813126 70.685852,80.076492 70.891586,80.339859 
	C70.891586,80.339859 70.847321,80.699051 70.955856,81.225723 
	C72.362213,85.835083 73.660042,89.917763 74.957870,94.000443 
z"/>
<path fill="#F9F7F1" opacity="1.000000" stroke="none" 
	d="
M75.168007,94.312691 
	C73.660042,89.917763 72.362213,85.835083 71.056229,81.376282 
	C71.588768,81.175873 72.129456,81.351585 72.872833,82.112930 
	C73.716522,84.132050 74.357521,85.565529 74.998512,86.999008 
	C75.161125,87.859344 75.323738,88.719673 75.743484,89.791260 
	C76.329536,91.746384 76.658455,93.490265 76.995026,95.978981 
	C77.005669,97.441528 77.008675,98.159248 77.011673,98.876961 
	C77.011673,98.876961 76.740501,98.932076 76.604790,98.958977 
	C76.105438,97.532234 75.741791,96.078583 75.168007,94.312691 
z"/>
<path fill="#F5F5F0" opacity="1.000000" stroke="none" 
	d="
M138.359253,36.924046 
	C137.335266,33.611019 136.675003,30.222015 135.982162,26.425652 
	C139.292679,28.295498 140.527969,33.119137 138.359253,36.924046 
z"/>
<path fill="#C5270E" opacity="1.000000" stroke="none" 
	d="
M283.333130,26.063316 
	C282.583221,25.897449 282.310486,25.710106 282.032715,25.266348 
	C290.421448,24.941908 298.815247,24.873884 307.682861,24.882614 
	C308.175995,25.139385 308.195343,25.319405 308.142090,25.761179 
	C299.983063,26.029236 291.896698,26.035540 283.333130,26.063316 
z"/>
<path fill="#C5270E" opacity="1.000000" stroke="none" 
	d="
M14.249830,26.016766 
	C13.992499,26.016977 13.601519,25.972633 13.405012,25.962967 
	C14.456511,25.571426 15.699483,24.879765 16.953360,24.859392 
	C23.662785,24.750387 30.374928,24.808880 37.548103,25.149839 
	C37.998333,25.657719 37.986591,25.825237 37.723068,26.005440 
	C37.303444,26.026657 37.135597,26.035187 36.967747,26.043718 
	C29.963112,26.030560 22.958477,26.017401 15.487751,26.016869 
	C14.850161,26.025181 14.678661,26.020866 14.249830,26.016766 
z"/>
<path fill="#C92910" opacity="1.000000" stroke="none" 
	d="
M182.463913,45.446171 
	C180.952011,45.457088 179.902206,45.390835 178.456741,45.343506 
	C178.875168,44.915489 179.689850,44.080940 180.503235,44.082184 
	C187.805649,44.093353 195.107834,44.251450 202.702118,44.664703 
	C196.304749,45.098354 189.615372,45.233677 182.463913,45.446171 
z"/>
<path fill="#C5270E" opacity="1.000000" stroke="none" 
	d="
M239.629761,24.893402 
	C240.102875,25.146967 240.106277,25.322512 239.775009,25.759247 
	C239.440353,26.020435 238.954468,26.065870 238.489075,26.046272 
	C230.698639,26.030785 223.373566,26.034893 216.048508,26.039001 
	C215.879181,26.034647 215.709839,26.030291 215.221054,25.754404 
	C214.910355,25.302683 214.919098,25.122496 214.927826,24.942308 
	C223.005249,24.900000 231.082657,24.857691 239.629761,24.893402 
z"/>
<path fill="#F9F7F1" opacity="1.000000" stroke="none" 
	d="
M46.804184,93.205238 
	C48.056347,97.038635 49.026531,101.109299 49.972458,105.588882 
	C48.806202,101.812714 47.664204,97.627602 46.804184,93.205238 
z"/>
<path fill="#F5F5F0" opacity="1.000000" stroke="none" 
	d="
M119.681946,97.082718 
	C120.382896,99.391350 120.699455,101.783562 120.963669,104.588501 
	C115.464195,103.400734 118.101189,100.135147 119.681946,97.082718 
z"/>
<path fill="#F5F5F0" opacity="1.000000" stroke="none" 
	d="
M153.345642,29.715328 
	C152.932739,30.810064 152.585861,31.601223 151.909424,32.709373 
	C151.579834,33.026363 151.103561,33.102425 151.103561,33.102425 
	C151.103561,33.102425 151.003357,33.016602 150.949158,32.977242 
	C149.075592,28.413403 151.764282,26.890947 155.864456,26.074602 
	C155.303101,27.201727 154.357391,28.306738 153.345642,29.715328 
z"/>
<path fill="#F5F5F0" opacity="1.000000" stroke="none" 
	d="
M151.868591,57.992664 
	C152.512009,58.081944 152.696686,58.315681 152.916809,58.812805 
	C153.752792,60.408485 154.452423,61.820511 155.322464,63.535805 
	C150.928391,63.189487 149.706558,61.415497 151.868591,57.992664 
z"/>
<path fill="#F9F7F1" opacity="1.000000" stroke="none" 
	d="
M44.255577,87.216614 
	C44.183220,86.122139 44.366867,85.246719 44.823212,84.166321 
	C45.685711,86.058479 46.275513,88.155624 46.845787,90.625854 
	C46.054699,89.811188 45.283142,88.623428 44.255577,87.216614 
z"/>
<path fill="#F5F5F0" opacity="1.000000" stroke="none" 
	d="
M73.346001,43.937149 
	C73.820358,41.804264 74.635704,39.612785 75.724792,37.211048 
	C75.228027,39.293377 74.457512,41.585964 73.346001,43.937149 
z"/>
<path fill="#F5F5F0" opacity="1.000000" stroke="none" 
	d="
M328.297882,103.378418 
	C328.731689,103.005539 329.090546,103.002312 329.718323,102.996063 
	C330.151642,103.872520 330.316010,104.751984 330.233490,105.819397 
	C329.632629,106.001198 329.278687,105.995064 328.659119,105.990143 
	C328.336609,105.243591 328.279755,104.495827 328.297882,103.378418 
z"/>
<path fill="#F5F5F0" opacity="1.000000" stroke="none" 
	d="
M75.239883,86.788635 
	C74.357521,85.565529 73.716522,84.132050 73.039352,82.351166 
	C73.829208,83.528595 74.655235,85.053429 75.239883,86.788635 
z"/>
<path fill="#F5F5F0" opacity="1.000000" stroke="none" 
	d="
M117.008423,91.423470 
	C118.000267,91.783875 119.001511,92.503464 119.951141,93.612396 
	C118.938950,93.262047 117.978386,92.522354 117.008423,91.423470 
z"/>
<path fill="#D0472E" opacity="1.000000" stroke="none" 
	d="
M66.140106,69.176392 
	C66.569855,69.537857 66.939735,70.281151 67.526733,71.259491 
	C67.807617,71.839981 67.871376,72.185432 68.017868,73.018875 
	C68.053520,73.671898 68.006432,73.836937 67.959343,74.001968 
	C67.332970,72.520721 66.706596,71.039467 66.140106,69.176392 
z"/>
<path fill="#F9F7F1" opacity="1.000000" stroke="none" 
	d="
M47.535141,33.059349 
	C47.728516,33.840042 47.607777,34.681576 47.289284,35.778008 
	C47.134697,35.062000 47.177864,34.091091 47.535141,33.059349 
z"/>
<path fill="#F5F5F0" opacity="1.000000" stroke="none" 
	d="
M90.508636,35.064056 
	C90.736938,35.847153 90.648636,36.696220 90.373444,37.807930 
	C90.188377,37.090389 90.190208,36.110207 90.508636,35.064056 
z"/>
<path fill="#F9F7F1" opacity="1.000000" stroke="none" 
	d="
M46.481354,38.093094 
	C46.652328,38.976238 46.462860,39.950996 46.086559,41.145538 
	C45.973454,40.305122 46.047188,39.244915 46.481354,38.093094 
z"/>
<path fill="#F5F5F0" opacity="1.000000" stroke="none" 
	d="
M293.090149,63.050865 
	C293.726959,63.872944 294.331512,65.092690 294.944824,66.656235 
	C294.321686,65.816193 293.689789,64.632362 293.090149,63.050865 
z"/>
<path fill="#F5F5F0" opacity="1.000000" stroke="none" 
	d="
M91.494629,29.063683 
	C91.710358,29.841566 91.612724,30.685345 91.331085,31.791956 
	C91.158478,31.079718 91.169861,30.104649 91.494629,29.063683 
z"/>
<path fill="#F5F5F0" opacity="1.000000" stroke="none" 
	d="
M345.426880,43.912483 
	C345.498291,42.707317 345.938599,41.414314 346.625854,39.876099 
	C346.513763,41.028809 346.154785,42.426727 345.426880,43.912483 
z"/>
<path fill="#F5F5F0" opacity="1.000000" stroke="none" 
	d="
M291.096680,58.216778 
	C291.725708,58.999744 292.313904,60.165268 292.913757,61.665451 
	C292.302185,60.866516 291.679016,59.732925 291.096680,58.216778 
z"/>
<path fill="#F9F7F1" opacity="1.000000" stroke="none" 
	d="
M68.028183,74.193001 
	C68.006432,73.836937 68.053520,73.671898 68.142914,73.252930 
	C68.768219,74.211571 69.351234,75.424149 69.901634,77.035660 
	C69.453362,76.680313 69.037697,75.926041 68.356674,74.980942 
	C68.091324,74.790108 68.097023,74.384033 68.028183,74.193001 
z"/>
<path fill="#F5F5F0" opacity="1.000000" stroke="none" 
	d="
M348.494019,33.994537 
	C348.121277,33.555679 348.075562,33.108315 348.098389,32.328922 
	C348.950134,32.299351 349.733398,32.601810 350.516632,32.904266 
	C349.951416,33.264854 349.386230,33.625446 348.494019,33.994537 
z"/>
<path fill="#F5F5F0" opacity="1.000000" stroke="none" 
	d="
M192.932617,58.691067 
	C192.093018,58.553726 191.199615,58.069092 190.134171,57.304207 
	C190.934357,57.463902 191.906570,57.903835 192.932617,58.691067 
z"/>
<path fill="#F5F5F0" opacity="1.000000" stroke="none" 
	d="
M92.752365,24.624853 
	C92.931244,24.812626 92.853508,25.263117 92.840332,25.491138 
	C92.827164,25.719162 92.451927,25.848228 92.280083,25.947399 
	C91.881096,25.584274 91.653961,25.121979 91.426826,24.659683 
	C91.809052,24.585484 92.191269,24.511282 92.752365,24.624853 
z"/>
<path fill="#F6EDE9" opacity="1.000000" stroke="none" 
	d="
M301.037872,104.308601 
	C301.257446,104.004395 301.505219,103.996269 301.938477,103.968674 
	C302.206543,104.488663 302.288849,105.018326 302.238434,105.789742 
	C301.759247,105.559143 301.412842,105.086800 301.037872,104.308601 
z"/>
<path fill="#F5F5F0" opacity="1.000000" stroke="none" 
	d="
M78.975983,62.811615 
	C78.557472,61.936684 78.162025,60.750797 77.766579,59.564907 
	C78.040710,59.486210 78.314850,59.407513 78.588989,59.328815 
	C78.727531,59.934502 78.866074,60.540188 79.025223,61.512337 
	C79.030235,62.086082 79.014641,62.293369 78.975983,62.811615 
z"/>
<path fill="#F5F5F0" opacity="1.000000" stroke="none" 
	d="
M347.360931,38.961933 
	C347.224609,38.456242 347.373474,37.911896 347.737000,37.175247 
	C347.849823,37.629723 347.747986,38.276501 347.360931,38.961933 
z"/>
<path fill="#D9482C" opacity="1.000000" stroke="none" 
	d="
M37.974846,25.992756 
	C37.986591,25.825237 37.998333,25.657719 38.010258,25.238319 
	C38.010437,24.986439 38.496716,24.880371 38.736923,24.945576 
	C38.948425,25.751986 38.919724,26.493193 38.604195,27.402699 
	C38.203190,27.044916 38.089020,26.518835 37.974846,25.992756 
z"/>
<path fill="#F5F5F0" opacity="1.000000" stroke="none" 
	d="
M160.766373,24.494289 
	C160.790970,24.740076 160.640213,24.824244 160.254517,25.017452 
	C159.854172,25.079361 159.688797,25.032230 159.270538,24.934299 
	C159.542114,24.699890 160.066574,24.516281 160.766373,24.494289 
z"/>
<path fill="#F8FFFE" opacity="1.000000" stroke="none" 
	d="
M207.398560,73.779045 
	C207.108627,73.528397 207.002563,73.102882 206.919891,72.347305 
	C207.156326,72.546227 207.369370,73.075203 207.398560,73.779045 
z"/>
<path fill="#D9482C" opacity="1.000000" stroke="none" 
	d="
M38.510277,105.244987 
	C38.789047,105.469849 38.873814,105.902481 38.983387,106.666367 
	C38.850178,107.070015 38.692158,107.142418 38.278091,107.166153 
	C38.120117,106.562576 38.218193,106.007668 38.510277,105.244987 
z"/>
<path fill="#F5F5F0" opacity="1.000000" stroke="none" 
	d="
M158.138428,66.259232 
	C158.311646,66.179504 158.633896,66.317101 159.090302,66.688187 
	C158.912109,66.773315 158.599792,66.624939 158.138428,66.259232 
z"/>
<path fill="#F5F5F0" opacity="1.000000" stroke="none" 
	d="
M194.002319,60.046989 
	C193.905426,60.173809 193.623459,60.272270 193.392670,60.180183 
	C193.443863,59.989635 193.817230,60.018631 194.002319,60.046989 
z"/>
<path fill="#F5F5F0" opacity="1.000000" stroke="none" 
	d="
M195.826248,60.807915 
	C195.633118,60.906479 195.280533,60.763885 194.774048,60.373924 
	C194.969025,60.273293 195.317917,60.420025 195.826248,60.807915 
z"/>
<path fill="#F5F5F0" opacity="1.000000" stroke="none" 
	d="
M338.360748,60.787338 
	C338.240417,60.613960 338.326111,60.250652 338.636658,59.708172 
	C338.763275,59.885136 338.665039,60.241272 338.360748,60.787338 
z"/>
<path fill="#E28D7B" opacity="1.000000" stroke="none" 
	d="
M214.651978,25.037704 
	C214.919098,25.122496 214.910355,25.302683 214.967133,25.745476 
	C215.032654,26.008078 214.722443,26.155821 214.552963,26.183319 
	C214.381027,25.851580 214.378571,25.492340 214.651978,25.037704 
z"/>
<path fill="#F5F5F0" opacity="1.000000" stroke="none" 
	d="
M151.973267,55.009743 
	C152.005905,55.174789 152.038528,55.339836 152.012421,55.750320 
	C151.653305,55.888184 151.402695,55.710464 151.079620,55.264862 
	C150.957428,55.067120 151.016052,54.992237 151.269684,54.995720 
	C151.523331,54.999199 151.973267,55.009743 151.973267,55.009743 
z"/>
<path fill="#F5F5F0" opacity="1.000000" stroke="none" 
	d="
M161.133743,68.282074 
	C161.303818,68.201370 161.624771,68.331512 162.077530,68.694153 
	C161.901093,68.782074 161.592865,68.637505 161.133743,68.282074 
z"/>
<path fill="#F5F5F0" opacity="1.000000" stroke="none" 
	d="
M176.141235,78.260605 
	C176.316284,78.176620 176.643402,78.310394 177.106735,78.679741 
	C176.926407,78.769661 176.609863,78.624016 176.141235,78.260605 
z"/>
<path fill="#F9F7F1" opacity="1.000000" stroke="none" 
	d="
M70.862762,80.089645 
	C70.685852,80.076492 70.480118,79.813126 70.265076,79.293686 
	C70.448486,79.304893 70.641212,79.572166 70.862762,80.089645 
z"/>
<path fill="#F7F0EA" opacity="1.000000" stroke="none" 
	d="
M118.103081,68.971329 
	C115.720795,69.450302 113.338509,69.929283 110.171669,70.566002 
	C110.997719,62.398048 111.645821,55.290920 112.511810,48.210445 
	C112.635979,47.195187 113.812149,46.308586 114.501465,45.362446 
	C114.977913,46.011543 115.454353,46.660645 115.972687,48.110668 
	C116.710747,55.598171 117.406914,62.284748 118.103081,68.971329 
z"/>
<path fill="#CE3E24" opacity="1.000000" stroke="none" 
	d="
M118.370819,68.671394 
	C117.406914,62.284748 116.710747,55.598171 116.066216,48.471462 
	C116.958092,54.811375 117.798325,61.591419 118.370819,68.671394 
z"/>
<path fill="#CD361C" opacity="1.000000" stroke="none" 
	d="
M142.024628,70.287094 
	C142.454025,71.347298 142.876160,72.800987 143.135864,74.623657 
	C142.654739,73.555283 142.336060,72.117935 142.024628,70.287094 
z"/>
<path fill="#CD361C" opacity="1.000000" stroke="none" 
	d="
M143.023438,76.291489 
	C143.439224,77.347450 143.848862,78.796310 144.113373,80.618149 
	C143.651260,79.555542 143.334274,78.119965 143.023438,76.291489 
z"/>
<path fill="#CD361C" opacity="1.000000" stroke="none" 
	d="
M140.679413,59.234047 
	C140.969193,60.073845 141.016159,61.126060 140.962158,62.568626 
	C140.719650,61.788143 140.578110,60.617306 140.679413,59.234047 
z"/>
<path fill="#CD361C" opacity="1.000000" stroke="none" 
	d="
M141.031036,64.249474 
	C141.434387,65.006004 141.826920,66.135483 142.088593,67.627373 
	C141.645218,66.867332 141.332718,65.744873 141.031036,64.249474 
z"/>
<path fill="#D4381C" opacity="1.000000" stroke="none" 
	d="
M37.723068,26.005440 
	C38.089020,26.518835 38.203190,27.044916 38.511387,27.761608 
	C38.752548,35.670052 38.799686,43.387886 38.778770,51.573105 
	C36.748909,54.169174 36.995544,52.424706 36.995880,51.069084 
	C36.997875,43.036488 36.993889,35.003887 36.979828,26.507504 
	C37.135597,26.035187 37.303444,26.026657 37.723068,26.005440 
z"/>
<path fill="#C62A11" opacity="1.000000" stroke="none" 
	d="
M49.942719,25.999378 
	C57.818802,25.268261 65.793442,24.836792 74.157127,24.384274 
	C74.157127,28.179861 74.157127,31.129580 74.057709,34.534279 
	C73.661247,34.425884 73.170837,33.886784 73.096581,33.295429 
	C72.181374,26.006618 72.196815,25.968353 65.041901,26.016813 
	C60.041286,26.050682 55.041454,26.200819 49.942719,25.999378 
z"/>
<path fill="#F9F7F1" opacity="1.000000" stroke="none" 
	d="
M44.868587,81.678925 
	C44.402351,81.123856 43.965149,80.249466 43.776993,79.183350 
	C44.316570,79.780952 44.607098,80.570274 44.868587,81.678925 
z"/>
<path fill="#F9F7F1" opacity="1.000000" stroke="none" 
	d="
M45.188995,45.780106 
	C45.056416,45.023060 45.089931,44.039829 45.479176,42.949581 
	C45.674969,43.746349 45.515034,44.650131 45.188995,45.780106 
z"/>
<path fill="#D0472E" opacity="1.000000" stroke="none" 
	d="
M65.076462,66.088303 
	C65.476227,66.540939 65.851349,67.370285 66.254242,68.549255 
	C65.871948,68.087585 65.461884,67.276299 65.076462,66.088303 
z"/>
<path fill="#F8FBFA" opacity="1.000000" stroke="none" 
	d="
M178.129974,46.421638 
	C178.845306,47.320148 179.409683,48.570858 179.985397,50.122505 
	C179.324173,49.206909 178.651596,47.990376 178.129974,46.421638 
z"/>
<path fill="#CB3B20" opacity="1.000000" stroke="none" 
	d="
M204.819809,69.120712 
	C204.973816,68.997467 205.291855,69.278030 205.345917,69.482246 
	C205.155258,69.538963 204.910522,69.391457 204.819809,69.120712 
z"/>
<path fill="#F6EDE9" opacity="1.000000" stroke="none" 
	d="
M328.767365,84.139114 
	C328.889526,84.478577 328.800751,85.003738 328.533020,85.730965 
	C328.421478,85.396957 328.488953,84.860893 328.767365,84.139114 
z"/>
<path fill="#C5270E" opacity="1.000000" stroke="none" 
	d="
M307.697693,28.138508 
	C307.832550,28.056328 307.923615,28.496477 307.881470,28.717051 
	C307.473236,28.773539 307.381073,28.534561 307.697693,28.138508 
z"/>
<path fill="#DA472B" opacity="1.000000" stroke="none" 
	d="
M216.030396,26.503553 
	C223.373566,26.034893 230.698639,26.030785 238.329529,26.423351 
	C238.444138,35.241974 238.211258,43.663601 238.145874,52.086521 
	C238.140976,52.717697 239.333008,53.358158 239.968628,53.994301 
	C243.265381,57.268780 246.750076,55.985004 250.559464,54.228466 
	C251.247299,51.833099 251.887405,49.634315 251.945450,47.420273 
	C252.098236,41.591805 252.132172,35.752380 251.944427,29.925993 
	C251.843872,26.805895 253.060364,25.868412 256.038330,25.949987 
	C262.032928,26.114189 268.035187,25.999050 274.500488,26.003471 
	C274.976959,50.895844 274.908783,75.784439 275.077209,100.671432 
	C275.104218,104.658195 274.197083,106.361443 269.879456,106.089973 
	C264.260223,105.736649 258.602234,105.999496 252.495880,105.978996 
	C251.897064,96.177124 251.763306,86.393417 251.139801,76.218842 
	C250.650070,75.827965 250.201462,75.778618 250.201462,75.778610 
	C246.985016,75.711098 243.768570,75.643585 239.871979,75.888260 
	C238.794983,77.696281 238.075104,79.187737 238.054810,80.688660 
	C237.940765,89.119492 237.995239,97.552597 237.992218,105.984932 
	C232.517471,105.990837 227.026627,105.740952 221.573166,106.084633 
	C217.308182,106.353409 215.849869,105.174629 215.892746,100.627632 
	C216.124176,76.076263 216.008347,51.521618 216.030396,26.503553 
z"/>
<path fill="#D24024" opacity="1.000000" stroke="none" 
	d="
M238.315216,105.989105 
	C237.995239,97.552597 237.940765,89.119492 238.054810,80.688660 
	C238.075104,79.187737 238.794983,77.696281 239.583130,76.102936 
	C240.010712,85.696434 240.046997,95.387451 240.006653,105.542068 
	C239.499451,106.001549 239.068832,105.997421 238.315216,105.989105 
z"/>
<path fill="#D24024" opacity="1.000000" stroke="none" 
	d="
M240.019501,53.528412 
	C239.333008,53.358158 238.140976,52.717697 238.145874,52.086521 
	C238.211258,43.663601 238.444138,35.241974 238.794907,26.442947 
	C238.954468,26.065870 239.440353,26.020435 239.683960,26.006372 
	C239.975159,35.015717 240.022751,44.039120 240.019501,53.528412 
z"/>
<path fill="#EDB4A5" opacity="1.000000" stroke="none" 
	d="
M250.180237,76.023178 
	C250.201462,75.778618 250.650070,75.827965 250.860229,75.910156 
	C251.036362,76.183365 251.002319,76.374374 250.823242,76.817764 
	C250.382034,76.882362 250.208954,76.614891 250.180237,76.023178 
z"/>
<path fill="#F4F8F2" opacity="1.000000" stroke="none" 
	d="
M77.375381,98.909531 
	C77.008675,98.159248 77.005669,97.441528 77.002403,96.363281 
	C77.931015,96.462044 78.859894,96.921341 79.788773,97.380646 
	C79.105545,97.901131 78.422318,98.421616 77.375381,98.909531 
z"/>
<path fill="#D0553D" opacity="1.000000" stroke="none" 
	d="
M152.273438,54.717545 
	C151.973267,55.009743 151.523331,54.999199 151.301666,54.960510 
	C151.058578,47.955231 151.037170,40.988636 151.059662,33.562233 
	C151.103561,33.102425 151.579834,33.026363 151.820984,33.022560 
	C152.232635,40.154285 152.403137,47.289818 152.273438,54.717545 
z"/>
</svg>