<svg version="1.1" id="Layer_1" xmlns="http://www.w3.org/2000/svg" xmlns:xlink="http://www.w3.org/1999/xlink" x="0px" y="0px"
	 width="100%" viewBox="0 0 72 72" enable-background="new 0 0 72 72" xml:space="preserve">
<path fill="#FDFCFC" opacity="1.000000" stroke="none" 
	d="
M34.000000,73.000000 
	C28.977907,73.000000 23.955816,73.000000 18.292656,72.655998 
	C17.518089,71.560417 17.384588,70.808838 17.372250,69.775177 
	C17.403622,69.309174 17.313828,69.125259 17.363319,68.564163 
	C17.377790,66.868538 17.252979,65.550095 17.191494,63.973373 
	C17.144115,62.800587 17.033413,61.886074 16.977848,60.732964 
	C17.032990,60.494362 17.170250,60.024212 17.547100,59.911804 
	C17.945391,55.530041 17.966831,51.260689 18.051304,46.577736 
	C18.408848,42.087849 18.678520,38.009563 19.004866,33.935825 
	C19.330151,29.875326 19.712273,25.819380 20.460365,21.810638 
	C21.898802,21.926554 22.946348,21.993269 24.007683,22.437305 
	C27.167395,27.201836 29.499298,23.745510 32.279110,22.098774 
	C33.060074,22.799753 33.569214,23.387794 34.037460,24.429188 
	C34.127628,27.595148 34.258694,30.307753 34.247124,33.436592 
	C34.104492,36.102222 34.104492,38.351620 34.104492,40.601021 
	C34.715218,40.789928 35.325943,40.978832 35.936668,41.167736 
	C36.555775,39.426540 37.174885,37.685341 38.017845,35.619713 
	C39.674831,30.838669 41.107971,26.382057 42.846329,21.951334 
	C43.786034,21.351154 44.420525,20.725088 45.256653,20.080387 
	C45.458286,20.061754 45.860909,20.018059 46.012932,20.405933 
	C49.105972,21.174501 52.046997,21.555195 55.001080,22.241243 
	C55.571449,23.018999 56.128754,23.491402 56.653404,24.378250 
	C55.696045,29.091074 54.771339,33.389454 53.660801,37.944733 
	C53.377491,38.611259 53.280018,39.020897 52.920059,39.520515 
	C52.666855,40.130383 52.676132,40.650265 52.520721,41.505444 
	C52.432915,42.950729 52.509804,44.060715 52.629730,45.461445 
	C52.760754,45.927265 52.848728,46.102345 52.928226,46.556442 
	C52.935047,47.393265 52.950352,47.951065 52.727230,48.847721 
	C51.073578,54.033962 53.088673,57.483406 56.914398,60.492535 
	C56.070232,62.556366 51.269485,64.318611 56.984116,66.106239 
	C57.083462,66.176170 57.316936,66.243362 57.346939,66.668633 
	C57.584629,69.062599 57.792316,71.031303 58.000000,73.000000 
	C52.645069,73.000000 47.290142,73.000000 41.324497,72.633705 
	C39.419590,66.485161 38.125397,60.702915 36.831200,54.920670 
	C36.217457,54.956867 35.603710,54.993069 34.989967,55.029270 
	C32.862846,60.818417 34.553490,67.034767 34.000000,73.000000 
z"/>
<path fill="#D5452C" opacity="1.000000" stroke="none" 
	d="
M1.000000,44.000000 
	C1.000000,43.555664 1.000000,43.111328 1.395738,42.240868 
	C2.194154,40.332775 2.908962,38.858200 2.944255,37.367535 
	C3.080599,31.608772 2.897499,25.842239 3.045572,20.084055 
	C3.115046,17.382381 3.667050,14.693116 4.305502,12.148722 
	C7.774124,16.773365 10.913689,21.264868 14.130212,25.700565 
	C14.551001,26.280846 15.366778,26.574701 15.999241,27.467947 
	C15.994786,32.958866 15.990699,37.983055 15.526705,43.004631 
	C10.377866,43.334675 5.688933,43.667336 1.000000,44.000000 
z"/>
<path fill="#D95F3C" opacity="1.000000" stroke="none" 
	d="
M21.000000,1.000000 
	C21.444336,1.000000 21.888672,1.000000 22.697018,1.317027 
	C23.676895,2.100187 24.292767,2.566321 25.064699,3.179063 
	C25.351200,3.589247 25.538765,3.802626 25.746712,4.390532 
	C26.329079,7.606401 26.948193,10.397546 27.550852,13.545025 
	C27.672981,14.598430 27.811569,15.295499 27.890358,16.373285 
	C27.772717,17.518318 27.714878,18.282633 27.328434,19.050261 
	C26.342339,19.046209 25.684843,19.038847 24.594410,19.021992 
	C22.425991,19.012123 20.690512,19.011747 18.653740,18.857220 
	C15.205067,14.180288 12.057688,9.657506 9.107487,4.781285 
	C11.775599,3.951007 14.282018,3.605179 16.704411,2.949111 
	C18.202360,2.543416 19.572491,1.665776 21.000000,1.000000 
z"/>
<path fill="#F6DFD9" opacity="1.000000" stroke="none" 
	d="
M8.910310,5.134724 
	C12.057688,9.657506 15.205067,14.180288 18.779682,19.138737 
	C19.494438,20.303415 19.781956,21.032427 20.069475,21.761438 
	C19.712273,25.819380 19.330151,29.875326 19.004866,33.935825 
	C18.678520,38.009563 18.408848,42.087849 17.800014,46.392807 
	C17.307104,46.033531 17.128519,45.445591 16.967541,44.399384 
	C16.930134,37.639053 16.875118,31.336988 16.875904,24.675257 
	C11.940938,17.307981 6.950168,10.300371 2.030899,3.039552 
	C2.734933,2.190895 3.367466,1.595448 4.000000,1.000000 
	C4.000000,1.000000 4.500000,1.000000 4.869633,1.316841 
	C6.462947,2.800696 7.686629,3.967710 8.910310,5.134724 
z"/>
<path fill="#DC603B" opacity="1.000000" stroke="none" 
	d="
M1.000000,66.000000 
	C1.000000,64.611000 1.000000,63.222004 1.351538,61.358891 
	C5.593850,58.824486 2.789675,55.663803 3.461503,52.999199 
	C6.389046,53.000019 8.873525,52.818691 11.311687,53.076088 
	C12.546422,53.206444 14.674362,54.103485 14.690016,54.698822 
	C14.726449,56.084492 14.124641,58.082455 13.076410,58.794716 
	C9.205966,61.424629 5.049151,63.633087 1.000000,66.000000 
z"/>
<path fill="#D15735" opacity="1.000000" stroke="none" 
	d="
M1.000000,66.375000 
	C5.049151,63.633087 9.205966,61.424629 13.076410,58.794716 
	C14.124641,58.082455 14.726449,56.084492 14.690016,54.698822 
	C14.674362,54.103485 12.546422,53.206444 11.311687,53.076088 
	C8.873525,52.818691 6.389046,53.000019 3.549680,52.606720 
	C5.638254,51.809532 8.130836,51.531635 10.552644,50.955982 
	C12.093710,50.589676 13.529748,49.781509 15.396744,49.267441 
	C16.243820,52.917007 16.707035,56.470612 17.170250,60.024212 
	C17.170250,60.024212 17.032990,60.494362 16.685686,60.772942 
	C15.895644,61.379375 15.452905,61.707226 14.646206,62.044914 
	C12.641416,63.001282 11.033926,64.012459 9.352206,64.879692 
	C6.593494,66.302299 3.786585,67.631447 1.000000,69.000000 
	C1.000000,68.250000 1.000000,67.500000 1.000000,66.375000 
z"/>
<path fill="#CF5A38" opacity="1.000000" stroke="none" 
	d="
M34.437500,73.000000 
	C34.553490,67.034767 32.862846,60.818417 34.989967,55.029270 
	C35.603710,54.993069 36.217457,54.956867 36.831200,54.920670 
	C38.125397,60.702915 39.419590,66.485161 40.856892,72.633705 
	C38.958332,73.000000 36.916668,73.000000 34.437500,73.000000 
z"/>
<path fill="#F5E2DA" opacity="1.000000" stroke="none" 
	d="
M56.884773,66.036308 
	C51.269485,64.318611 56.070232,62.556366 57.267128,60.430634 
	C61.776356,62.374809 65.880882,64.699623 70.106934,67.322273 
	C71.152306,68.080070 72.076157,68.540039 73.000000,69.000000 
	C72.911514,71.016968 74.016388,73.928955 69.450645,72.676132 
	C68.251892,71.906883 67.602501,71.461494 66.808655,70.732773 
	C65.416557,69.683449 64.168922,68.917458 62.766762,67.864449 
	C61.437515,67.039398 60.262791,66.501358 58.953861,65.683136 
	C58.174690,65.614067 57.529732,65.825188 56.884773,66.036308 
z"/>
<path fill="#CB402B" opacity="1.000000" stroke="none" 
	d="
M1.959399,3.292762 
	C6.950168,10.300371 11.940938,17.307981 16.665007,24.858038 
	C16.265408,25.934065 16.132507,26.467642 15.999607,27.001221 
	C15.366778,26.574701 14.551001,26.280846 14.130212,25.700565 
	C10.913689,21.264868 7.774124,16.773365 4.274066,11.820141 
	C2.958338,10.227378 1.979169,9.113688 1.000000,8.000000 
	C1.000000,6.933331 1.000000,5.866662 1.124833,4.067161 
	C1.486243,3.320474 1.722821,3.306618 1.959399,3.292762 
z"/>
<path fill="#F8E7E3" opacity="1.000000" stroke="none" 
	d="
M17.547100,59.911804 
	C16.707035,56.470612 16.243820,52.917007 14.935539,49.200844 
	C9.726982,49.025520 5.363491,49.012760 1.000000,49.000000 
	C1.000000,48.250000 1.000000,47.500000 1.463613,46.363140 
	C6.617214,45.596443 11.307203,45.216602 16.234550,44.879738 
	C16.471909,44.922714 16.949934,44.857651 16.949934,44.857651 
	C17.128519,45.445591 17.307104,46.033531 17.736980,46.806404 
	C17.966831,51.260689 17.945391,55.530041 17.547100,59.911804 
z"/>
<path fill="#D8523B" opacity="1.000000" stroke="none" 
	d="
M73.000000,9.000000 
	C73.000000,21.020895 73.000000,33.041790 72.646362,45.459213 
	C71.842972,45.699852 71.393219,45.543961 70.937218,45.053864 
	C70.951096,43.814827 70.971214,42.910000 70.993027,41.536190 
	C70.996269,35.258312 71.110817,29.446375 70.954849,23.641706 
	C70.868301,20.420279 70.329987,17.210985 70.035278,13.631285 
	C70.391121,11.844883 70.706978,10.423419 71.352356,9.002730 
	C72.121254,9.002337 72.560631,9.001169 73.000000,9.000000 
z"/>
<path fill="#F9E8E4" opacity="1.000000" stroke="none" 
	d="
M45.860909,20.018059 
	C45.860909,20.018059 45.458286,20.061754 44.955505,20.050049 
	C44.050694,20.042713 43.648655,20.047085 43.224960,19.632820 
	C44.162300,13.468892 45.121296,7.723599 46.157745,1.725726 
	C46.156799,1.315430 46.078400,1.157715 46.000000,1.000000 
	C47.066570,1.000000 48.133137,1.000000 49.600430,1.344136 
	C50.311661,2.468240 50.622169,3.248208 50.857021,4.367034 
	C49.906338,6.806609 49.031311,8.907327 48.087723,11.399711 
	C47.299744,14.533605 46.580326,17.275831 45.860909,20.018059 
z"/>
<path fill="#D34D36" opacity="1.000000" stroke="none" 
	d="
M1.000000,8.468657 
	C1.979169,9.113688 2.958338,10.227378 3.968942,11.669647 
	C3.667050,14.693116 3.115046,17.382381 3.045572,20.084055 
	C2.897499,25.842239 3.080599,31.608772 2.944255,37.367535 
	C2.908962,38.858200 2.194154,40.332775 1.395738,41.907372 
	C1.000000,30.979105 1.000000,19.958210 1.000000,8.468657 
z"/>
<path fill="#F7E6E3" opacity="1.000000" stroke="none" 
	d="
M70.943466,45.388069 
	C71.393219,45.543961 71.842972,45.699852 72.646362,45.927872 
	C73.000000,46.750000 73.000000,47.500000 72.648590,48.644066 
	C71.848206,49.160938 71.399231,49.283741 70.504883,49.260635 
	C64.361549,48.912769 58.663601,48.710815 52.965652,48.508865 
	C52.950352,47.951065 52.935047,47.393265 53.381920,46.413124 
	C59.543880,45.789879 65.243675,45.588974 70.943466,45.388069 
z"/>
<path fill="#F5E0D9" opacity="1.000000" stroke="none" 
	d="
M1.000000,69.333328 
	C3.786585,67.631447 6.593494,66.302299 9.352206,64.879692 
	C11.033926,64.012459 12.641416,63.001282 14.647372,62.425690 
	C15.017853,63.558300 15.023209,64.319977 15.005726,65.340614 
	C13.985743,66.404839 12.988598,67.210098 11.637728,68.031738 
	C9.189334,69.698738 7.094667,71.349365 5.000000,73.000000 
	C4.555555,73.000000 4.111111,73.000000 3.287541,72.681656 
	C2.272276,71.908882 1.636138,71.454437 1.000000,71.000000 
	C1.000000,70.555557 1.000000,70.111107 1.000000,69.333328 
z"/>
<path fill="#D86444" opacity="1.000000" stroke="none" 
	d="
M1.000000,49.460636 
	C5.363491,49.012760 9.726982,49.025520 14.551678,49.104881 
	C13.529748,49.781509 12.093710,50.589676 10.552644,50.955982 
	C8.130836,51.531635 5.638254,51.809532 3.087464,52.605995 
	C2.789675,55.663803 5.593850,58.824486 1.351538,60.942387 
	C1.000000,57.307091 1.000000,53.614182 1.000000,49.460636 
z"/>
<path fill="#DA7150" opacity="1.000000" stroke="none" 
	d="
M50.932678,4.028176 
	C50.622169,3.248208 50.311661,2.468240 50.000576,1.344136 
	C56.354397,1.000000 62.708797,1.000000 69.610367,1.329245 
	C70.105827,2.105780 70.054123,2.553070 69.693222,3.093815 
	C68.282753,3.841757 67.181480,4.496244 65.984497,4.745442 
	C60.903423,4.236161 55.918053,4.132168 50.932678,4.028176 
z"/>
<path fill="#D34D36" opacity="1.000000" stroke="none" 
	d="
M15.997192,44.836765 
	C11.307203,45.216602 6.617214,45.596443 1.463613,45.988140 
	C1.000000,45.555553 1.000000,45.111111 1.000000,44.333332 
	C5.688933,43.667336 10.377866,43.334675 15.530237,43.309441 
	C15.994848,44.023499 15.996020,44.430134 15.997192,44.836765 
z"/>
<path fill="#DE7252" opacity="1.000000" stroke="none" 
	d="
M9.107487,4.781285 
	C7.686629,3.967710 6.462947,2.800696 5.119633,1.316841 
	C10.022092,1.000000 15.044185,1.000000 20.533138,1.000000 
	C19.572491,1.665776 18.202360,2.543416 16.704411,2.949111 
	C14.282018,3.605179 11.775599,3.951007 9.107487,4.781285 
z"/>
<path fill="#D1422C" opacity="1.000000" stroke="none" 
	d="
M5.454110,73.000000 
	C7.094667,71.349365 9.189334,69.698738 11.871496,68.297913 
	C13.305993,70.031822 14.152996,71.515907 15.000000,73.000000 
	C11.969407,73.000000 8.938814,73.000000 5.454110,73.000000 
z"/>
<path fill="#DC5943" opacity="1.000000" stroke="none" 
	d="
M28.000000,1.000000 
	C33.022091,1.000000 38.044186,1.000000 43.532928,1.247931 
	C43.999577,1.495863 43.998432,1.991725 43.780479,2.105856 
	C43.289711,2.423841 43.103649,2.688657 42.558006,3.010827 
	C38.759357,3.325354 35.407040,3.643486 31.596581,3.970255 
	C30.527382,4.017168 29.916327,4.055444 29.082567,4.236815 
	C28.527441,4.266966 28.195015,4.154021 27.958948,3.669225 
	C28.036871,2.531582 28.018436,1.765791 28.000000,1.000000 
z"/>
<path fill="#DE6C49" opacity="1.000000" stroke="none" 
	d="
M70.950256,49.406548 
	C71.399231,49.283741 71.848206,49.160938 72.648590,49.019066 
	C73.000000,54.354931 73.000000,59.709858 72.669312,65.531097 
	C71.897705,65.993828 71.456787,65.990242 71.011002,65.524994 
	C71.002693,61.041004 70.999268,57.018673 70.998535,52.634979 
	C70.984230,51.317928 70.967247,50.362240 70.950256,49.406548 
z"/>
<path fill="#C3331E" opacity="1.000000" stroke="none" 
	d="
M15.375000,73.000000 
	C14.152996,71.515907 13.305993,70.031822 12.225222,68.281548 
	C12.988598,67.210098 13.985743,66.404839 15.349224,65.183067 
	C16.186430,64.588257 16.657301,64.409950 17.128170,64.231644 
	C17.252979,65.550095 17.377790,66.868538 17.192078,68.600372 
	C17.004732,69.361595 17.127911,69.709427 17.251087,70.057259 
	C17.384588,70.808838 17.518089,71.560417 17.825794,72.655998 
	C17.250000,73.000000 16.500000,73.000000 15.375000,73.000000 
z"/>
<path fill="#C6321C" opacity="1.000000" stroke="none" 
	d="
M59.088070,65.963326 
	C60.262791,66.501358 61.437515,67.039398 62.604542,68.155319 
	C62.064564,70.155464 61.532284,71.577736 61.000000,73.000000 
	C60.250000,73.000000 59.500000,73.000000 58.375000,73.000000 
	C57.792316,71.031303 57.584629,69.062599 57.789024,66.592911 
	C58.496758,66.049057 58.792412,66.006195 59.088070,65.963326 
z"/>
<path fill="#D1412F" opacity="1.000000" stroke="none" 
	d="
M61.416668,73.000000 
	C61.532284,71.577736 62.064564,70.155464 62.759064,68.442337 
	C64.168922,68.917458 65.416557,69.683449 66.579544,70.910255 
	C66.329926,71.914055 66.164963,72.457024 66.000000,73.000000 
	C64.611115,73.000000 63.222221,73.000000 61.416668,73.000000 
z"/>
<path fill="#FCF4F1" opacity="1.000000" stroke="none" 
	d="
M70.002411,3.000359 
	C70.054123,2.553070 70.105827,2.105780 70.078766,1.329245 
	C72.558868,0.441159 73.558807,1.441227 72.732086,4.569991 
	C71.968422,5.385146 71.472664,5.630342 71.005020,5.550913 
	C70.689560,4.484313 70.345985,3.742336 70.002411,3.000359 
z"/>
<path fill="#CF6142" opacity="1.000000" stroke="none" 
	d="
M71.015877,65.986656 
	C71.456787,65.990242 71.897705,65.993828 72.669312,65.998703 
	C73.000000,66.750000 73.000000,67.500000 73.000000,68.625000 
	C72.076157,68.540039 71.152306,68.080070 70.109497,67.063194 
	C69.994263,66.333557 69.998001,66.160828 70.255272,65.990204 
	C70.677834,65.990433 70.846855,65.988548 71.015877,65.986656 
z"/>
<path fill="#CA4B34" opacity="1.000000" stroke="none" 
	d="
M70.976913,5.875536 
	C71.472664,5.630342 71.968422,5.385146 72.732086,5.069975 
	C73.000000,6.066673 73.000000,7.133346 73.000000,8.600010 
	C72.560631,9.001169 72.121254,9.002337 71.079536,8.997713 
	C70.295563,8.986006 70.113937,8.980093 70.064972,8.660319 
	C70.457390,7.522819 70.717155,6.699177 70.976913,5.875536 
z"/>
<path fill="#F6E2DC" opacity="1.000000" stroke="none" 
	d="
M27.625000,1.000000 
	C28.018436,1.765791 28.036871,2.531582 27.613121,3.662940 
	C26.708443,4.007607 26.245949,3.986707 25.783457,3.965807 
	C25.538765,3.802626 25.351200,3.589247 25.128223,2.844144 
	C25.023792,1.908412 25.011896,1.454206 25.000000,1.000000 
	C25.750000,1.000000 26.500000,1.000000 27.625000,1.000000 
z"/>
<path fill="#C12C22" opacity="1.000000" stroke="none" 
	d="
M66.375000,73.000000 
	C66.164963,72.457024 66.329926,71.914055 66.723999,71.193588 
	C67.602501,71.461494 68.251892,71.906883 68.950645,72.676132 
	C68.250000,73.000000 67.500000,73.000000 66.375000,73.000000 
z"/>
<path fill="#FDFBF8" opacity="1.000000" stroke="none" 
	d="
M2.030899,3.039552 
	C1.722821,3.306618 1.486243,3.320474 1.124833,3.667165 
	C1.263320,2.731102 -0.085014,0.387769 3.500000,1.000000 
	C3.367466,1.595448 2.734933,2.190895 2.030899,3.039552 
z"/>
<path fill="#DE7252" opacity="1.000000" stroke="none" 
	d="
M24.666668,1.000000 
	C25.011896,1.454206 25.023792,1.908412 24.972160,2.697537 
	C24.292767,2.566321 23.676895,2.100187 23.030514,1.317027 
	C23.444445,1.000000 23.888889,1.000000 24.666668,1.000000 
z"/>
<path fill="#EFF1F0" opacity="1.000000" stroke="none" 
	d="
M1.000000,71.500000 
	C1.636138,71.454437 2.272276,71.908882 2.954208,72.681656 
	C2.333334,72.666664 1.666667,72.333328 1.000000,71.500000 
z"/>
<path fill="#CC5240" opacity="1.000000" stroke="none" 
	d="
M43.998432,1.991725 
	C43.998432,1.991725 43.999577,1.495863 43.999786,1.247931 
	C44.444443,1.000000 44.888889,1.000000 45.666664,1.000000 
	C46.078400,1.157715 46.156799,1.315430 45.810768,1.743916 
	C44.923706,2.007032 44.461067,1.999379 43.998432,1.991725 
z"/>
<path fill="#D5452C" opacity="1.000000" stroke="none" 
	d="
M69.995300,13.996222 
	C70.329987,17.210985 70.868301,20.420279 70.954849,23.641706 
	C71.110817,29.446375 70.996269,35.258312 70.527206,41.534286 
	C65.045822,41.996670 60.031933,41.991978 54.887352,41.772385 
	C54.298851,41.386929 53.841045,41.216377 53.317139,40.781246 
	C53.228210,40.154621 53.205379,39.792576 53.182549,39.430531 
	C53.280018,39.020897 53.377491,38.611259 53.755196,38.315666 
	C55.003487,38.374729 56.719528,38.555431 56.822716,38.227943 
	C57.749004,35.288166 58.283497,32.227772 59.140156,29.262634 
	C60.970551,22.927120 64.508446,17.756313 69.995300,13.996222 
z"/>
<path fill="#D4462D" opacity="1.000000" stroke="none" 
	d="
M32.054722,3.961619 
	C35.407040,3.643486 38.759357,3.325354 42.556061,3.429852 
	C42.862865,4.829821 42.696945,5.804140 42.592468,6.785004 
	C42.052475,11.854512 41.528206,16.925697 40.625298,22.001900 
	C38.194214,22.663616 36.136284,23.319725 34.078354,23.975834 
	C33.569214,23.387794 33.060074,22.799753 32.385487,21.842545 
	C32.291977,21.302982 32.363918,21.132587 32.770374,20.938322 
	C33.403347,18.609051 33.701809,16.303648 33.998016,13.650629 
	C33.337734,12.203893 32.679703,11.104773 32.019768,9.574953 
	C32.030155,7.416709 32.042439,5.689164 32.054722,3.961619 
z"/>
<path fill="#D35934" opacity="1.000000" stroke="none" 
	d="
M70.001732,65.988106 
	C69.998001,66.160828 69.994263,66.333557 69.987961,66.765358 
	C65.880882,64.699623 61.776356,62.374809 57.319096,60.111900 
	C53.088673,57.483406 51.073578,54.033962 52.727230,48.847717 
	C58.663601,48.710815 64.361549,48.912769 70.504883,49.260635 
	C70.967247,50.362240 70.984230,51.317928 70.533913,52.636246 
	C65.774399,52.998878 61.482197,52.998878 57.189991,52.998878 
	C57.030426,53.578415 56.870861,54.157951 56.711292,54.737488 
	C58.051308,55.963047 59.348156,57.240265 60.740170,58.403603 
	C63.801842,60.962299 66.911606,63.463459 70.001732,65.988106 
z"/>
<path fill="#C83D26" opacity="1.000000" stroke="none" 
	d="
M70.035278,13.631285 
	C64.508446,17.756313 60.970551,22.927120 59.140156,29.262634 
	C58.283497,32.227772 57.749004,35.288166 56.822716,38.227943 
	C56.719528,38.555431 55.003487,38.374729 53.941029,38.058769 
	C54.771339,33.389454 55.696045,29.091074 57.050522,24.151663 
	C57.670803,22.173874 57.861309,20.837118 58.024147,19.498211 
	C57.996475,19.496059 58.009998,19.549894 58.353035,19.813231 
	C62.441479,16.375772 66.186890,12.674976 69.932304,8.974180 
	C70.113937,8.980093 70.295563,8.986006 70.750015,8.996937 
	C70.706978,10.423419 70.391121,11.844883 70.035278,13.631285 
z"/>
<path fill="#D15430" opacity="1.000000" stroke="none" 
	d="
M58.009998,19.549894 
	C58.009998,19.549894 57.996475,19.496059 57.672626,19.488678 
	C56.561859,20.299492 55.774937,21.117691 54.988014,21.935890 
	C52.046997,21.555195 49.105972,21.174501 46.012932,20.405933 
	C46.580326,17.275831 47.299744,14.533605 48.472969,11.413162 
	C49.788574,13.443821 50.650372,15.852695 51.644180,18.630558 
	C53.684631,17.644648 56.395222,16.334936 59.040092,15.417096 
	C58.652912,17.055941 58.331455,18.302917 58.009998,19.549894 
z"/>
<path fill="#CB4028" opacity="1.000000" stroke="none" 
	d="
M34.037460,24.429188 
	C36.136284,23.319725 38.194214,22.663616 40.866676,22.005783 
	C41.481213,22.004063 41.963867,22.014862 42.108040,21.991625 
	C42.252216,21.968388 42.541115,21.925447 42.541115,21.925447 
	C41.107971,26.382057 39.674831,30.838669 37.709770,35.580894 
	C36.248482,34.917789 35.319118,33.969074 34.389755,33.020359 
	C34.258694,30.307753 34.127628,27.595148 34.037460,24.429188 
z"/>
<path fill="#D03C25" opacity="1.000000" stroke="none" 
	d="
M55.018044,41.987286 
	C60.031933,41.991978 65.045822,41.996670 70.525528,42.003265 
	C70.971214,42.910000 70.951096,43.814827 70.937218,45.053864 
	C65.243675,45.588974 59.543880,45.789879 53.390396,46.134102 
	C52.848728,46.102345 52.760754,45.927265 53.009773,45.372334 
	C53.903862,43.990749 54.460953,42.989017 55.018044,41.987286 
z"/>
<path fill="#F9EEE9" opacity="1.000000" stroke="none" 
	d="
M32.435863,20.962191 
	C32.363918,21.132587 32.291977,21.302982 32.113663,21.729607 
	C29.499298,23.745510 27.167395,27.201836 24.264763,22.320377 
	C24.681713,21.753378 24.855366,21.680624 25.397419,21.695515 
	C26.396225,20.871090 27.026630,19.959019 27.657038,19.046949 
	C27.714878,18.282633 27.772717,17.518318 28.244236,16.379469 
	C29.364895,16.019222 30.071875,16.033506 31.047186,16.308216 
	C31.688967,18.033157 32.062416,19.497675 32.435863,20.962191 
z"/>
<path fill="#BE3925" opacity="1.000000" stroke="none" 
	d="
M34.247124,33.436592 
	C35.319118,33.969074 36.248482,34.917789 37.485920,35.905327 
	C37.174885,37.685341 36.555775,39.426540 35.936668,41.167736 
	C35.325943,40.978832 34.715218,40.789928 34.104492,40.601021 
	C34.104492,38.351620 34.104492,36.102222 34.247124,33.436592 
z"/>
<path fill="#CD5330" opacity="1.000000" stroke="none" 
	d="
M25.029018,21.607870 
	C24.855366,21.680624 24.681713,21.753378 24.250977,21.943058 
	C22.946348,21.993269 21.898802,21.926554 20.460365,21.810638 
	C19.781956,21.032427 19.494438,20.303415 19.080976,19.292889 
	C20.690512,19.011747 22.425991,19.012123 24.587799,19.343391 
	C25.019091,20.318811 25.024055,20.963341 25.029018,21.607870 
z"/>
<path fill="#BE371C" opacity="1.000000" stroke="none" 
	d="
M54.887352,41.772385 
	C54.460953,42.989017 53.903862,43.990749 52.966728,45.081593 
	C52.509804,44.060715 52.432915,42.950729 52.701202,41.508839 
	C53.046371,41.176937 53.383236,41.045826 53.383236,41.045826 
	C53.841045,41.216377 54.298851,41.386929 54.887352,41.772385 
z"/>
<path fill="#F7E9E3" opacity="1.000000" stroke="none" 
	d="
M55.001076,22.241241 
	C55.774937,21.117691 56.561859,20.299492 57.700294,19.490828 
	C57.861309,20.837118 57.670803,22.173874 57.083176,23.737217 
	C56.128754,23.491402 55.571449,23.018999 55.001076,22.241241 
z"/>
<path fill="#F8E7E3" opacity="1.000000" stroke="none" 
	d="
M17.191494,63.973373 
	C16.657301,64.409950 16.186430,64.588257 15.372062,64.924110 
	C15.023209,64.319977 15.017853,63.558300 15.011332,62.415848 
	C15.452905,61.707226 15.895644,61.379375 16.630547,61.011543 
	C17.033413,61.886074 17.144115,62.800587 17.191494,63.973373 
z"/>
<path fill="#FDF2EE" opacity="1.000000" stroke="none" 
	d="
M43.246620,20.051456 
	C43.648655,20.047085 44.050694,20.042713 44.753872,20.068682 
	C44.420525,20.725088 43.786034,21.351154 42.846329,21.951334 
	C42.541115,21.925447 42.252216,21.968388 42.253174,21.728127 
	C42.584957,21.009060 42.915787,20.530258 43.246620,20.051456 
z"/>
<path fill="#BE462F" opacity="1.000000" stroke="none" 
	d="
M58.953861,65.683136 
	C58.792412,66.006195 58.496758,66.049057 57.759018,66.167641 
	C57.316936,66.243362 57.083462,66.176170 56.984116,66.106239 
	C57.529732,65.825188 58.174690,65.614067 58.953861,65.683136 
z"/>
<path fill="#CF6857" opacity="1.000000" stroke="none" 
	d="
M53.317139,40.781246 
	C53.383236,41.045826 53.046371,41.176937 52.865891,41.173542 
	C52.676132,40.650265 52.666855,40.130383 52.920059,39.520515 
	C53.205379,39.792576 53.228210,40.154621 53.317139,40.781246 
z"/>
<path fill="#C1482F" opacity="1.000000" stroke="none" 
	d="
M17.372250,69.775177 
	C17.127911,69.709427 17.004732,69.361595 17.052795,68.977554 
	C17.313828,69.125259 17.403622,69.309174 17.372250,69.775177 
z"/>
<path fill="#C84633" opacity="1.000000" stroke="none" 
	d="
M16.234550,44.879738 
	C15.996020,44.430134 15.994848,44.023499 15.990144,43.312057 
	C15.990699,37.983055 15.994786,32.958866 15.999241,27.467947 
	C16.132507,26.467642 16.265408,25.934065 16.609203,25.217705 
	C16.875118,31.336988 16.930134,37.639053 16.967541,44.399384 
	C16.949934,44.857651 16.471909,44.922714 16.234550,44.879738 
z"/>
<path fill="#FBECEB" opacity="1.000000" stroke="none" 
	d="
M25.746712,4.390532 
	C26.245949,3.986707 26.708443,4.007607 27.516762,4.034791 
	C28.195015,4.154021 28.527441,4.266966 29.028229,4.633772 
	C29.563166,6.699511 29.929741,8.511389 30.227718,10.650681 
	C30.263517,11.644435 30.367912,12.310773 30.109055,12.961734 
	C29.019638,13.027135 28.293474,13.107912 27.567308,13.188690 
	C26.948193,10.397546 26.329079,7.606401 25.746712,4.390532 
z"/>
<path fill="#C6441E" opacity="1.000000" stroke="none" 
	d="
M25.397419,21.695515 
	C25.024055,20.963341 25.019091,20.318811 25.020737,19.352882 
	C25.684843,19.038847 26.342339,19.046209 27.328434,19.050261 
	C27.026630,19.959019 26.396225,20.871090 25.397419,21.695515 
z"/>
<path fill="#F4DED8" opacity="1.000000" stroke="none" 
	d="
M27.550852,13.545025 
	C28.293474,13.107912 29.019638,13.027135 30.259369,13.258575 
	C30.937653,13.719300 31.102371,13.867806 31.177467,14.355215 
	C30.984848,15.145343 30.881851,15.596567 30.778854,16.047792 
	C30.071875,16.033506 29.364895,16.019222 28.304035,15.998753 
	C27.811569,15.295499 27.672981,14.598430 27.550852,13.545025 
z"/>
<path fill="#DA603D" opacity="1.000000" stroke="none" 
	d="
M59.105816,15.025229 
	C56.395222,16.334936 53.684631,17.644648 51.644180,18.630558 
	C50.650372,15.852695 49.788574,13.443821 48.541534,11.021495 
	C49.031311,8.907327 49.906338,6.806609 50.857025,4.367034 
	C55.918053,4.132168 60.903423,4.236161 65.954796,5.102095 
	C63.715805,8.917768 61.410809,11.971498 59.105816,15.025229 
z"/>
<path fill="#CB3B25" opacity="1.000000" stroke="none" 
	d="
M43.224960,19.632820 
	C42.915787,20.530258 42.584957,21.009060 42.108997,21.751362 
	C41.963867,22.014862 41.481213,22.004063 41.239830,22.000179 
	C41.528206,16.925697 42.052475,11.854512 42.592468,6.785004 
	C42.696945,5.804140 42.862865,4.829821 43.002392,3.433457 
	C43.103649,2.688657 43.289711,2.423841 43.780479,2.105856 
	C44.461067,1.999379 44.923706,2.007032 45.733315,1.996497 
	C45.121296,7.723599 44.162300,13.468892 43.224960,19.632820 
z"/>
<path fill="#F7E3DD" opacity="1.000000" stroke="none" 
	d="
M59.040092,15.417097 
	C61.410809,11.971498 63.715805,8.917768 66.050499,5.507384 
	C67.181480,4.496244 68.282753,3.841757 69.693222,3.093815 
	C70.345985,3.742336 70.689560,4.484313 71.005020,5.550912 
	C70.717155,6.699177 70.457390,7.522819 70.064972,8.660320 
	C66.186890,12.674976 62.441479,16.375772 58.353035,19.813231 
	C58.331455,18.302917 58.652912,17.055941 59.040092,15.417097 
z"/>
<path fill="#C63015" opacity="1.000000" stroke="none" 
	d="
M30.296316,10.323266 
	C29.929741,8.511389 29.563166,6.699511 29.250931,4.490676 
	C29.916327,4.055444 30.527382,4.017168 31.596581,3.970255 
	C32.042439,5.689164 32.030155,7.416709 31.582890,9.624905 
	C30.864042,10.178124 30.580179,10.250695 30.296316,10.323266 
z"/>
<path fill="#DB603C" opacity="1.000000" stroke="none" 
	d="
M70.255272,65.990204 
	C66.911606,63.463459 63.801842,60.962299 60.740170,58.403603 
	C59.348156,57.240265 58.051308,55.963047 56.711292,54.737488 
	C56.870861,54.157951 57.030426,53.578415 57.189991,52.998878 
	C61.482197,52.998878 65.774399,52.998878 70.531219,52.997608 
	C70.999268,57.018673 71.002693,61.041004 71.011002,65.524994 
	C70.846855,65.988548 70.677834,65.990433 70.255272,65.990204 
z"/>
<path fill="#C72E1B" opacity="1.000000" stroke="none" 
	d="
M31.047184,16.308216 
	C30.881851,15.596567 30.984848,15.145343 31.517914,14.364115 
	C32.632080,14.022155 33.316174,14.010200 34.000271,13.998245 
	C33.701809,16.303648 33.403347,18.609051 32.770374,20.938322 
	C32.062416,19.497675 31.688967,18.033157 31.047184,16.308216 
z"/>
<path fill="#CF3F27" opacity="1.000000" stroke="none" 
	d="
M33.998016,13.650629 
	C33.316174,14.010200 32.632080,14.022155 31.607536,14.025211 
	C31.102371,13.867806 30.937653,13.719300 30.622620,13.273952 
	C30.367912,12.310773 30.263517,11.644435 30.227718,10.650681 
	C30.580179,10.250695 30.864042,10.178124 31.584785,10.055603 
	C32.679703,11.104773 33.337734,12.203893 33.998016,13.650629 
z"/>
</svg>